<?xml version="1.0" encoding="utf-8"?>
<!-- Generator: Adobe Illustrator 22.0.1, SVG Export Plug-In . SVG Version: 6.00 Build 0)  -->
<svg version="1.1" id="圖層_1" xmlns="http://www.w3.org/2000/svg" xmlns:xlink="http://www.w3.org/1999/xlink" x="0px" y="0px"
	 viewBox="0 0 373.8 353.2" style="enable-background:new 0 0 373.8 353.2;" xml:space="preserve">
<style type="text/css">
	.st0{fill:#DDDDDD;}
	.st1{display:none;fill:none;stroke:#CCCCCC;stroke-width:4.1031;stroke-miterlimit:10;}
	.st2{fill:none;stroke:#999999;stroke-width:4.1031;stroke-miterlimit:10;}
	.st3{fill:#95CCCE;}
	.st4{fill:#99D4D9;}
	.st5{fill:#F490A6;}
	.st6{fill:#FF98AA;}
	.st7{fill:#EDB198;}
	.st8{fill:#F6B597;}
	.st9{fill:#E3B7EA;}
	.st10{fill:#EDBDF4;}
	.st11{fill:#A1CFE2;}
	.st12{fill:#A8D7F0;}
	.st13{fill:#95C6A2;}
	.st14{fill:#9CD1AB;}
</style>
<g>
	<g>
		<rect x="192.6" y="58.7" class="st0" width="4.1" height="134"/>
		
			<rect x="128.5" y="104.6" transform="matrix(0.3079 -0.9514 0.9514 0.3079 -73.2525 243.2255)" class="st0" width="4.1" height="134.7"/>
		
			<rect x="87.6" y="245.7" transform="matrix(0.5817 -0.8134 0.8134 0.5817 -136.565 229.9551)" class="st0" width="135.3" height="4.1"/>
		
			<rect x="232.2" y="179.9" transform="matrix(0.8116 -0.5842 0.5842 0.8116 -100.573 183.5068)" class="st0" width="4.1" height="135.6"/>
		
			<rect x="191.4" y="169.9" transform="matrix(0.9518 -0.3066 0.3066 0.9518 -40.2418 87.6894)" class="st0" width="135.2" height="4.1"/>
	</g>
	<g>
		<g>
			<circle class="st0" cx="323.6" cy="151.5" r="50.2"/>
		</g>
	</g>
	<g>
		<circle class="st0" cx="194.9" cy="191.1" r="61.5"/>
	</g>
	<g>
		<g>
			<circle class="st0" cx="194.9" cy="58.4" r="50.2"/>
		</g>
	</g>
	<g>
		<g>
			<circle class="st0" cx="66.2" cy="151.5" r="50.2"/>
		</g>
	</g>
	<g>
		<circle class="st0" cx="274.1" cy="303" r="50.2"/>
	</g>
	<g>
		<circle class="st0" cx="116.2" cy="302.5" r="50.2"/>
	</g>
</g>
<g>
	<g>
		<circle class="st1" cx="188.3" cy="186" r="135.8"/>
		<line class="st2" x1="186.6" y1="184.5" x2="186.6" y2="50.5"/>
		<line class="st2" x1="58.5" y1="143" x2="186.6" y2="184.5"/>
		<line class="st2" x1="186.6" y1="184.5" x2="107.9" y2="294.5"/>
		<line class="st2" x1="186.6" y1="184.5" x2="265.8" y2="294.5"/>
		<line class="st2" x1="315.3" y1="143" x2="186.6" y2="184.5"/>
		<path class="st1" d="M186.8,50.5c-52.5,17-94.2,49.6-128.3,93.2c-5.1,57.6,11.4,107.8,49,150.9c53.4,17.4,106.3,17.8,158.6,0
			c28.5-44.7,45-95,49-150.9C280.8,96.2,237.2,66.7,186.8,50.5z"/>
	</g>
	<g>
		<g>
			<path class="st3" d="M351.1,107.8c19.6,19.6,19.6,51.4,0,71.1s-51.4,19.6-71.1,0L351.1,107.8z"/>
			<path class="st4" d="M280,178.8c-19.6-19.6-19.6-51.4,0-71.1s51.4-19.6,71.1,0L280,178.8z"/>
		</g>
		<g>
			<path d="M304.1,131.4l1.9,1c0.2,0.1,0.2,0.2,0.2,0.3c0,0.2-0.2,0.3-0.5,0.3c-0.2,0-0.4,0-0.6,0.1c1.2,1.5,2.2,2.6,3.1,3.5
				c1.2,1.1,2.3,2,3.4,2.7c1.3,0.8,2.6,1.4,3.8,1.6c0,0.2-0.1,0.3-0.2,0.3c-0.5,0.5-0.9,0.8-1.2,1.1c-0.1,0.1-0.2,0.1-0.4,0.1
				c-1.3-0.5-2.6-1.3-3.9-2.2v0.4c0,0.2-0.1,0.4-0.3,0.4h-4.8v3.9h6.8c0.2,0,0.3,0.1,0.3,0.4v0.8c0,0.2-0.1,0.4-0.3,0.4h-6.8v5.8
				h9.3c0.2,0,0.3,0.1,0.3,0.4v0.8c0,0.2-0.1,0.4-0.3,0.4h-20.2c-0.2,0-0.3-0.1-0.3-0.4v-0.8c0-0.2,0.1-0.4,0.3-0.4h9.2v-5.8H296
				c-0.2,0-0.3-0.1-0.3-0.4v-0.8c0-0.2,0.1-0.4,0.3-0.4h6.9V141h-4.8c-0.2,0-0.3-0.1-0.3-0.4v-0.8c-0.6,0.4-1.1,0.8-1.7,1.1
				c-1,0.6-1.8,1.1-2.5,1.3c-0.2,0-0.3-0.1-0.4-0.2c-0.2-0.4-0.5-0.7-0.8-1c-0.2-0.1-0.3-0.2-0.3-0.3c0,0,0.1-0.1,0.2-0.1
				c1.4-0.5,2.6-1.1,3.6-1.6c1.3-0.7,2.6-1.7,3.9-2.8c0.9-0.7,1.6-1.5,2.1-2.1c0.6-0.7,1.2-1.6,1.7-2.4
				C303.8,131.5,304,131.4,304.1,131.4z M298.1,147.8c0.2,0,0.3,0,0.3,0.1c0.7,1.1,1.3,2.2,1.9,3.4c0,0.2,0,0.4-0.1,0.4
				c-0.6,0.4-1.1,0.6-1.4,0.6c-0.6-1.5-1.2-2.7-1.7-3.7C297,148.4,297.4,148.2,298.1,147.8z M298.4,139.5h10.4
				c-0.4-0.3-0.7-0.6-1.1-0.9c-0.9-0.8-2.2-2.2-3.8-4.2c-0.8,0.9-1.5,1.7-2.2,2.4s-1.6,1.5-2.6,2.3
				C298.9,139.1,298.7,139.3,298.4,139.5z M309.4,147.7l1.5,0.6c0.2,0.1,0.4,0.2,0.4,0.3s-0.1,0.2-0.2,0.2c-0.2,0-0.3,0.1-0.3,0.2
				c-0.5,1.2-1.1,2.1-1.6,2.7c-0.1,0.1-0.2,0.2-0.3,0.2c-0.1,0-0.2,0-0.4-0.1c-0.3-0.1-0.7-0.3-1-0.4c-0.1,0-0.2-0.1-0.2-0.1
				s0-0.1,0.1-0.2c0.5-0.6,0.8-1.1,1-1.5c0.4-0.6,0.6-1.2,0.8-1.7C309.3,147.8,309.3,147.7,309.4,147.7z"/>
			<path d="M318.8,138.6c0.9,0.4,1.7,0.8,2.3,1.2c0.7,0.4,1.3,0.8,1.8,1.2c0,0,0,0.1-0.1,0.2c-0.6,0.8-0.9,1.2-0.9,1.2
				c-0.8-0.6-1.6-1.1-2.4-1.6c-0.7-0.4-1.3-0.7-1.7-0.9c0-0.1,0.3-0.5,0.8-1.1C318.7,138.7,318.7,138.6,318.8,138.6z M323.4,144
				c0.1,0,0.2,0.1,0.2,0.2c0.4,0.9,0.6,1.4,0.6,1.5s0,0.3-0.1,0.4c-0.9,1.9-1.7,3.6-2.4,4.9c-0.4,0.8-1,1.6-1.6,2.6
				c-0.1,0.2-0.2,0.5-0.2,0.9c0,0.2-0.1,0.3-0.2,0.3s-0.7-0.5-1.6-1.6c-0.1,0-0.2-0.1-0.2-0.3c0-0.1,0-0.2,0.1-0.3
				c0.5-0.5,1-1.1,1.5-1.8c0.7-1,1.4-2.2,2.1-3.4c0.6-1.1,1.1-2.1,1.5-3C323.2,144.1,323.3,144,323.4,144z M320.1,131.9
				c0.9,0.4,1.7,0.9,2.3,1.2c0.7,0.5,1.3,0.9,1.8,1.3c0,0,0,0.1-0.1,0.2c-0.6,0.8-0.9,1.2-0.9,1.2c-0.7-0.6-1.5-1.2-2.4-1.7
				c-0.7-0.4-1.3-0.7-1.7-0.9c0-0.1,0.3-0.5,0.8-1.1C319.9,132,320,131.9,320.1,131.9z M326.9,144c1.5,0.2,2.2,0.3,2.2,0.4
				c0,0.2-0.1,0.3-0.2,0.3c-0.2,0.1-0.3,0.3-0.3,0.6v1.7c0,0.7,0,1.4-0.1,2.3c-0.1,0.9-0.3,1.6-0.6,2.3c-0.3,0.7-0.7,1.3-1.1,1.9
				c-0.3,0.4-0.9,0.9-1.6,1.5c-0.1,0-0.2-0.1-0.2-0.2c-0.3-0.3-0.5-0.5-0.8-0.7c-0.1-0.1-0.2-0.2-0.2-0.3c0.7-0.6,1.3-1,1.5-1.4
				c0.3-0.4,0.6-0.9,0.8-1.4c0.2-0.5,0.4-1.1,0.5-1.9c0.1-0.7,0.1-1.4,0.1-2.1v-2.7C326.8,144.1,326.8,144,326.9,144z M332.2,131.6
				c1.3,0,1.9,0.1,1.9,0.3s-0.1,0.4-0.3,0.4c-0.2,0-0.2,0.2-0.2,0.5v1.8h6.8c0.2,0,0.3,0.1,0.3,0.4v0.8c0,0.3-0.1,0.4-0.3,0.4h-9.3
				c1,0.3,1.5,0.6,1.5,0.7c0,0.2-0.1,0.3-0.3,0.3c-0.2,0-0.3,0.1-0.3,0.2c-0.4,0.7-1,1.6-1.7,2.5c-0.2,0.3-0.4,0.6-0.7,0.9
				c2.4-0.2,4.9-0.5,7.3-0.8c-0.4-0.7-0.9-1.3-1.3-1.9c0-0.2,0.4-0.4,1.1-0.8c0.1,0,0.2,0,0.3,0.1c1.4,1.7,2.7,3.6,3.8,5.6
				c0,0.2,0,0.4-0.1,0.4c-0.6,0.4-1.1,0.6-1.4,0.6c-0.5-0.9-1-1.8-1.4-2.5c-3.2,0.4-6.7,0.8-10.6,1.2c-0.2,0-0.3,0.1-0.4,0.3
				s-0.2,0.3-0.4,0.3c-0.2,0-0.6-0.7-1.2-2.1c0.9,0,1.7-0.1,2.6-0.2c0.7-1,1.4-2,2-3.1c0.3-0.5,0.5-1.1,0.6-1.6h-4.8
				c-0.2,0-0.3-0.1-0.3-0.4V135c0-0.3,0.1-0.4,0.3-0.4h6.4v-2.7C331.8,131.7,332,131.6,332.2,131.6z M331.3,144.1
				c1.3,0,1.9,0.1,1.9,0.3s-0.1,0.4-0.2,0.4s-0.2,0.2-0.2,0.5v9.1c0,0.2-0.1,0.3-0.4,0.3h-1c-0.2,0-0.4-0.1-0.4-0.3v-10
				C331,144.2,331.1,144.1,331.3,144.1z M335.5,144c1.2,0.1,1.8,0.2,1.8,0.4c0,0.1-0.1,0.3-0.2,0.5v7.3c0,0.3,0.1,0.4,0.2,0.4h1.6
				c0.3,0,0.7-0.8,1-2.3l1.6,1c-0.6,2-1.3,3-2.1,3h-2.8c-0.9,0-1.3-0.4-1.3-1.2v-8.8C335.3,144.1,335.4,144,335.5,144z"/>
		</g>
	</g>
	<g>
		<path class="st5" d="M230.4,139.4c24,24,24,63,0,87s-63,24-87,0L230.4,139.4z"/>
		<path class="st6" d="M143.4,226.5c-24-24-24-63,0-87s63-24,87,0L143.4,226.5z"/>
		<g>
			<path d="M165,163.1h9.7c0-0.3,0.1-0.6,0.1-0.9c0.1-1.6,0.1-3.5,0-5.7l2.6,0.3c0,0.1-0.1,0.3-0.2,0.3c-0.3,0.1-0.4,0.3-0.4,0.5
				c0,2.3-0.2,4.1-0.3,5.5h9.7c0.2,0,0.3,0.1,0.3,0.4v1c0,0.3-0.1,0.4-0.3,0.4H177c0.3,1.2,0.6,2.2,1,3.1c0.4,1.1,0.9,2.1,1.5,3
				c0.8,1.3,1.9,2.5,3.1,3.5c1.1,0.9,2.3,1.6,3.7,2.1c0.1,0.1,0.1,0.1,0.1,0.2c0,0.2-0.1,0.3-0.3,0.4c-0.3,0.3-0.6,0.7-0.9,1.1
				c-0.1,0.2-0.2,0.3-0.4,0.3c-0.1,0-0.4-0.2-1-0.6c-1.8-1.1-3.3-2.4-4.5-3.9c-1-1.2-1.7-2.4-2.1-3.6c-0.4-0.7-0.8-1.9-1.4-3.7
				c-0.1,0.5-0.2,0.9-0.4,1.4c-0.4,1.3-1,2.5-1.7,3.7c-0.6,1.2-1.4,2.2-2.3,3.1c-1.1,1.1-2.8,2.3-5.1,3.6c-0.1,0-0.2-0.1-0.3-0.3
				c-0.3-0.3-0.6-0.6-1-0.9c-0.1-0.1-0.2-0.3-0.2-0.4c0.5-0.2,1.2-0.5,2-1c0.9-0.5,1.7-1,2.3-1.6c0.8-0.6,1.5-1.3,2-2.1
				c0.7-0.8,1.3-1.8,1.8-2.9c0.4-1,0.8-2.1,1.1-3.2c0.1-0.4,0.2-0.8,0.3-1.2H165c-0.2,0-0.3-0.1-0.3-0.4v-1
				C164.7,163.2,164.8,163.1,165,163.1z"/>
			<path d="M194.2,156.5c1.3,0.7,2,1.1,2,1.2c0,0.2-0.1,0.2-0.2,0.2c-0.3,0-0.5,0.1-0.5,0.2c-0.7,1.6-1.4,2.9-2,3.9v16.1
				c0,0.2-0.1,0.3-0.4,0.3h-1c-0.3,0-0.4-0.1-0.4-0.3v-13.9c-0.5,0.6-1.1,1.3-1.9,2c-0.2,0-0.3-0.1-0.5-0.2
				c-0.2-0.2-0.5-0.4-0.7-0.6c-0.1-0.1-0.2-0.2-0.2-0.3c0.7-0.7,1.4-1.4,2-2.1c0.9-1,1.6-2.1,2.3-3.3c0.6-1.1,1-2.1,1.3-3.1
				C194,156.5,194.1,156.5,194.2,156.5z M198,162.8l1.5,0.6c0.2,0.1,0.4,0.2,0.4,0.4s-0.1,0.4-0.4,0.4c-0.3,0-0.5,0.2-0.6,0.5
				s-0.2,0.6-0.3,0.8c0.3,0.6,0.6,1,0.9,1.3c0.3,0.5,0.9,1,1.7,1.6c0.1,0,0.1,0.1,0.1,0.1c0,0.1-0.1,0.1-0.2,0.2
				c-0.2,0.2-0.4,0.5-0.8,0.8c-0.1,0.1-0.2,0.2-0.3,0.2s-0.1,0-0.2-0.1c-0.5-0.5-1-1-1.4-1.6c-0.2-0.3-0.4-0.6-0.5-0.9
				c-0.5,1.1-1,2-1.5,2.7c-0.2,0.3-0.3,0.4-0.5,0.4s-0.2-0.1-0.4-0.2c-0.3-0.2-0.6-0.3-0.9-0.4c-0.1,0-0.2-0.1-0.2-0.1
				c0-0.1,0-0.2,0.1-0.3c0.8-1.1,1.4-2,1.8-2.8c0.6-1.1,1.1-2.1,1.3-3.2C197.8,162.9,197.9,162.8,198,162.8z M195.6,159.8h6.1v-1.6
				v-1.5c0-0.2,0-0.3,0.1-0.3l1.7,0.1c0.3,0.1,0.4,0.2,0.4,0.3s-0.1,0.2-0.2,0.3c-0.2,0.1-0.3,0.2-0.3,0.5v2.2h7.2
				c0.2,0,0.3,0.1,0.3,0.4v0.8c0,0.2-0.1,0.4-0.3,0.4h-7.2v4.2c0,0.4,0,0.7,0,1c0.1,0.9,0.3,1.7,0.5,2.4c0.3,1,0.6,2,1.1,2.8
				c0.4,0.7,0.8,1.4,1.3,2s1.1,1.2,1.9,1.7c0.7,0.5,1.6,1,2.7,1.4c0.1,0,0.2,0.1,0.2,0.2c0,0.1,0,0.2-0.1,0.3
				c-0.3,0.2-0.6,0.5-0.9,0.8c-0.1,0.2-0.2,0.2-0.3,0.2c0,0-0.2-0.1-0.4-0.2c-0.5-0.3-1.1-0.6-1.7-1c-0.8-0.5-1.5-1.1-2.1-1.7
				c-0.7-0.8-1.3-1.5-1.7-2.2c-0.5-0.8-0.9-1.6-1.1-2.5c-0.2,0.6-0.4,1.2-0.7,1.8c-0.4,0.9-0.9,1.8-1.7,2.7c-0.9,1.1-2,1.9-3.1,2.6
				c-0.7,0.4-1.3,0.6-1.5,0.6c-0.1,0-0.2-0.1-0.3-0.2c-0.2-0.4-0.5-0.8-0.7-1.2c-0.1-0.1-0.2-0.1-0.2-0.1c0-0.1,0-0.2,0.1-0.2
				c1-0.2,1.8-0.6,2.4-1c0.8-0.5,1.5-1.1,2-1.8c0.6-0.7,1.1-1.4,1.5-2.3c0.4-0.7,0.6-1.5,0.7-2.4c0.2-0.9,0.3-2.2,0.3-3.8l0.1-4.2
				h-6.1c-0.2,0-0.3-0.1-0.3-0.4v-0.8C195.3,159.9,195.4,159.8,195.6,159.8z M207.6,162.9l1.5,0.6c0.2,0.1,0.4,0.2,0.4,0.4
				s-0.1,0.4-0.3,0.4c-0.3,0-0.4,0.1-0.5,0.4c-0.1,0.3-0.2,0.5-0.2,0.7c0.4,0.7,0.7,1.2,1,1.6c0.4,0.5,1.1,1.1,2.1,1.8
				c0.1,0,0.2,0.1,0.2,0.2c0,0-0.1,0.1-0.2,0.2c-0.2,0.2-0.4,0.5-0.8,0.8c-0.1,0.1-0.2,0.2-0.3,0.2s-0.2,0-0.3-0.1
				c-0.7-0.6-1.2-1.2-1.7-1.9c-0.2-0.4-0.4-0.7-0.7-1.1c-0.4,1.1-0.9,1.9-1.3,2.7c-0.2,0.3-0.3,0.4-0.4,0.4s-0.2-0.1-0.4-0.2
				c-0.3-0.2-0.6-0.3-0.9-0.4c-0.1,0-0.2-0.1-0.2-0.1c0-0.1,0-0.2,0.1-0.3c0.7-1.1,1.2-2,1.6-2.8c0.5-1,0.9-2.1,1.1-3.1
				C207.3,163,207.4,162.9,207.6,162.9z"/>
			<path d="M141,188.6h3.5v-2.5c0-0.2,0.1-0.3,0.4-0.3c1.2,0,1.8,0.1,1.8,0.3s-0.1,0.3-0.2,0.4c-0.2,0-0.2,0.2-0.2,0.5v1.6h3.1
				c0.2,0,0.3,0.1,0.3,0.4v0.8c0,0.3-0.1,0.4-0.3,0.4h-3.1v2.5h2c0.5-0.5,0.9-1.1,1.3-1.7c0.6-0.9,1.1-2,1.6-3.2
				c0-0.1,0.1-0.2,0.1-0.2l1.5,0.7c0.2,0.1,0.3,0.2,0.3,0.3s-0.1,0.1-0.3,0.1s-0.3,0.1-0.4,0.2c-0.7,1.5-1.5,2.7-2.2,3.6h1
				c0.2,0,0.3,0.1,0.3,0.4v0.8c0,0.3-0.1,0.4-0.3,0.4H149c-0.7,0.7-1.4,1.4-2.2,2.1c-0.1,0.1-0.3,0.2-0.4,0.4h3.2
				c0.2,0,0.3,0,0.4,0.1c0.3,0.3,0.5,0.5,0.5,0.6l-3.5,3.6c0,0,0,0-0.1,0v0.5c1.4-0.3,2.7-0.5,3.9-0.8c0,0,0.1,0,0.2,0
				c0.1,0,0.2,0.1,0.2,0.2c0,0.8,0,1.3-0.1,1.3c-1.4,0.3-2.8,0.5-4.2,0.8v3.4c0,1.1-0.8,1.7-2.5,1.7l-1.5-0.2
				c-0.1,0-0.1-0.1-0.2-0.4c0-0.4-0.2-0.7-0.4-1.1c0-0.1,0-0.2,0.1-0.2c0.8,0.3,1.5,0.4,2,0.4s0.8-0.3,0.8-0.9v-2.5
				c-1.2,0.2-2.5,0.4-3.7,0.6c-0.2,0.5-0.4,0.7-0.6,0.7c-0.1,0-0.5-0.7-1-2c1.4-0.2,3.2-0.4,5.2-0.8h0.1v-2c0-0.2,0.1-0.3,0.4-0.3
				l0.5,0.2l1.6-1.7h-3.8c-0.3,0.2-0.6,0.4-1,0.5c-0.9,0.4-1.7,0.8-2.3,1c-0.2,0-0.4-0.1-0.4-0.2c-0.2-0.4-0.5-0.9-0.8-1.3
				c1.1-0.4,2.3-0.9,3.5-1.5c1.3-0.7,2.6-1.6,3.7-2.5l0,0h-6.5c-0.2,0-0.3-0.1-0.3-0.4V193c0-0.3,0.1-0.4,0.3-0.4h4.3v-2.5H141
				c-0.2,0-0.3-0.1-0.3-0.4V189C140.8,188.7,140.9,188.6,141,188.6z M155.2,185.8l1.7,0.6c0.2,0.1,0.2,0.2,0.2,0.3s-0.1,0.2-0.2,0.3
				c-0.2,0-0.3,0.1-0.3,0.4c-0.2,1-0.4,1.9-0.6,2.7h6c0.2,0,0.3,0.1,0.3,0.4v0.8c0,0.2-0.1,0.4-0.3,0.4h-1.4c-0.1,3-0.3,5.2-0.7,6.6
				c-0.5,2-1.1,3.6-2,4.9c0.3,0.4,0.7,0.7,1.1,1.1c1,0.9,2.2,1.7,3.6,2.5c0,0.1-0.1,0.2-0.2,0.3c-0.3,0.2-0.6,0.5-1,0.7
				c-0.1,0.1-0.3,0.1-0.4,0.1c-0.9-0.5-1.7-1.1-2.6-1.9c-0.6-0.5-1.1-1-1.6-1.5c-0.5,0.5-1,0.9-1.6,1.3c-0.9,0.7-2.1,1.4-3.6,2
				c-0.4-0.4-0.8-0.9-1.1-1.2c0.8-0.3,1.7-0.7,2.7-1.5c1-0.7,1.8-1.3,2.4-2.1c-0.5-0.8-1-1.8-1.4-3c-0.4-1-0.6-2.4-0.8-4
				c-0.2,0.3-0.4,0.6-0.5,0.8c-0.2,0-0.4,0-0.5-0.1c-0.3-0.1-0.6-0.2-0.9-0.3c-0.1,0-0.2-0.1-0.2-0.1c0-0.1,0-0.2,0.1-0.3
				c0.7-1,1.3-2.2,1.9-3.6c0.3-0.8,0.6-1.7,0.9-2.7c0.3-1,0.5-2.2,0.8-3.8C155.1,185.9,155.1,185.8,155.2,185.8z M154.2,195h0.5
				c0.3,0,0.5,0.1,0.5,0.4c0.1,1.5,0.3,2.7,0.6,3.7c0.3,0.8,0.6,1.7,1.1,2.5c0.6-1.1,1.1-2.3,1.4-3.6c0.4-1.4,0.6-3.5,0.7-6.3h-3.4
				l0,0c-0.3,1.1-0.7,2.1-1.1,3C154.3,194.8,154.3,194.9,154.2,195z"/>
			<path d="M171.6,186.7c-0.5,0.4-1.1,0.6-1.9,0.8c-0.4,0.1-0.9,0.2-1.4,0.2v1.6h3.3c0.1,0,0.2,0.1,0.2,0.3v0.8
				c0,0.2-0.1,0.4-0.2,0.4h-3.3v1.6h3.3c0.1,0,0.2,0.1,0.2,0.3v0.8c0,0.2-0.1,0.4-0.2,0.4h-3.3v1.7h14.3v-1.7h-3
				c-0.1,0-0.2-0.1-0.2-0.4v-0.8c0-0.2,0.1-0.3,0.2-0.3h3v-1.6h-3c-0.1,0-0.2-0.1-0.2-0.4v-0.8c0-0.2,0.1-0.3,0.2-0.3h3v-1.7h-3
				c-0.1,0-0.2-0.1-0.2-0.4v-0.8c0-0.2,0.1-0.3,0.2-0.3h4.3c0.3,0,0.4,0.1,0.4,0.3v9.1h1.6c0.3,0,0.4,0.1,0.4,0.3v3.9
				c0,0.2-0.1,0.3-0.4,0.3h-1c-0.3,0-0.4-0.1-0.4-0.3V197h-18.3v2.8c0,0.2-0.1,0.3-0.4,0.3h-1c-0.3,0-0.4-0.1-0.4-0.3v-3.9
				c0-0.2,0.1-0.3,0.4-0.3h1.6v-9.3c0-0.2,0.1-0.3,0.3-0.3l0.9,0.4c0.7,0,1.2-0.1,1.5-0.2c0.7-0.1,1.2-0.4,1.7-0.8c0,0,0.1,0,0.2,0
				c0.1,0,0.2,0,0.3,0.1c0.6,0.7,0.9,1,0.9,1.1c0,0.2-0.1,0.3-0.2,0.3L171.6,186.7z M170.3,198.1h9.9c0.2,0,0.4,0,0.4,0.1
				c0.3,0.3,0.5,0.4,0.5,0.6l-4.2,3.5h-0.1v0.3h9.2c0.1,0,0.2,0.1,0.2,0.3v0.8c0,0.3-0.1,0.4-0.2,0.4h-9.2v2.2
				c0,1.1-0.8,1.7-2.5,1.7h-1.5c-0.1,0-0.1-0.1-0.2-0.4c0-0.4-0.2-0.8-0.4-1.1c0-0.1,0-0.2,0.1-0.2c0.8,0.1,1.5,0.2,2,0.2
				s0.8-0.3,0.8-0.8v-1.6h-9.6c-0.1,0-0.2-0.1-0.2-0.4v-0.8c0-0.2,0.1-0.3,0.2-0.3h9.6v-1.5c0-0.2,0.1-0.3,0.4-0.3l0.5,0.2l2-1.6
				h-7.7c-0.2,0-0.3-0.1-0.3-0.4v-0.7C170,198.2,170.1,198.1,170.3,198.1z M177.5,185.6l1.1,0.8c0.1,0.1,0.1,0.2,0.1,0.3
				s-0.1,0.1-0.2,0.1c-0.2,0-0.4,0.1-0.5,0.2c-0.3,0.4-0.6,0.7-0.9,1c0.7,0.4,1.3,0.9,1.8,1.2c0,0,0,0.1-0.1,0.2
				c-0.4,0.6-0.6,0.9-0.6,0.9c-0.6-0.5-1.3-1-2-1.4c-0.7,0.5-1.5,1-2.4,1.5c-0.2,0-0.3-0.1-0.3-0.2c-0.3-0.2-0.5-0.4-0.7-0.5
				c-0.1,0-0.1-0.1-0.1-0.2c0,0,0-0.1,0.1-0.1c0.5-0.2,0.9-0.4,1.2-0.6c0.4-0.2,0.7-0.4,1-0.6c-0.9-0.5-1.6-0.8-2.1-1.1
				c0-0.1,0.2-0.3,0.6-0.8c0.1-0.1,0.1-0.1,0.2-0.1c0.9,0.4,1.7,0.8,2.4,1.1c0.4-0.4,0.9-0.9,1.4-1.5
				C177.4,185.7,177.4,185.6,177.5,185.6z M177.5,190.5l1.1,0.8c0.1,0.1,0.1,0.2,0.1,0.2c0,0.1-0.1,0.1-0.2,0.1
				c-0.2,0-0.4,0.1-0.5,0.2c-0.3,0.3-0.6,0.6-0.9,0.9c0.6,0.4,1.1,0.8,1.6,1.2c0,0,0,0.1-0.1,0.2c-0.4,0.6-0.6,0.9-0.6,0.9
				c-0.6-0.5-1.2-0.9-1.8-1.4c-0.7,0.5-1.5,1-2.5,1.5c-0.2,0-0.3,0-0.3-0.1c-0.3-0.2-0.5-0.4-0.7-0.5c-0.1,0-0.1-0.1-0.1-0.2
				c0,0,0-0.1,0.1-0.1c0.5-0.2,0.9-0.3,1.2-0.5c0.4-0.2,0.8-0.5,1.1-0.7c0,0,0,0-0.1,0c-0.9-0.5-1.6-0.9-2.2-1.1
				c0-0.1,0.2-0.3,0.6-0.8c0.1-0.1,0.1-0.1,0.2-0.1c1,0.5,1.8,0.9,2.5,1.3c0.4-0.4,0.8-0.8,1.3-1.4
				C177.4,190.5,177.4,190.5,177.5,190.5z"/>
			<path d="M190.5,186.7h18.9c0.2,0,0.3,0.1,0.3,0.3v0.9c0,0.3-0.1,0.4-0.3,0.4H201v9.7h9.7c0.2,0,0.3,0.1,0.3,0.3v0.9
				c0,0.3-0.1,0.4-0.3,0.4H201v8c0,0.2-0.2,0.3-0.5,0.3h-1c-0.3,0-0.4-0.1-0.4-0.3v-8h-9.7c-0.2,0-0.3-0.1-0.3-0.4v-0.9
				c0-0.2,0.1-0.3,0.3-0.3h9.7v-9.7h-8.6c-0.2,0-0.3-0.1-0.3-0.4V187C190.3,186.8,190.4,186.7,190.5,186.7z M193.4,190
				c0.7,1.1,1.2,2.2,1.6,3.2c0.4,0.9,0.7,1.8,1,2.8c0,0.1-0.6,0.3-1.7,0.6c-0.1-0.7-0.4-1.5-0.7-2.4c-0.4-1.1-0.9-2.2-1.6-3.2
				C192,190.8,192.5,190.5,193.4,190z M206.8,189.9l1.7,0.9c0.2,0.1,0.2,0.2,0.2,0.3c0,0.2-0.1,0.3-0.3,0.3c-0.3,0-0.5,0.2-0.5,0.4
				c-0.5,1.3-1.3,2.9-2.4,4.8c-0.2,0-0.4,0-0.4-0.1l-1.2-0.8c0.7-0.9,1.2-1.8,1.6-2.7c0.4-1,0.8-2,1-2.9
				C206.5,190,206.6,189.9,206.8,189.9z"/>
			<path d="M221.4,185.5c1.5,0.5,2.3,0.8,2.3,1s-0.1,0.3-0.3,0.3s-0.3,0.1-0.3,0.2c-0.7,1.5-1.6,3.2-2.7,5.2c-0.5,1-1.1,1.9-1.6,2.7
				c4.1-0.4,8.2-0.9,12.2-1.5c-0.7-1.3-1.6-2.6-2.7-3.8c0-0.1,0.5-0.4,1.4-0.9c1.2,1.6,2.2,3.1,2.9,4.4c0.7,1.2,1.3,2.5,1.8,3.9
				c0,0.1-0.6,0.3-1.7,0.6c-0.2-0.8-0.5-1.7-1.1-2.7c-4.7,0.7-10,1.3-15.8,1.8c-0.3,0-0.5,0.1-0.7,0.4c-0.1,0.3-0.2,0.4-0.4,0.4
				s-0.6-0.7-1.2-2.2c1.1-0.1,2.2-0.2,3.2-0.2c1.2-2,2.3-4,3.2-6.2c0.4-1.1,0.8-2.1,1-3.1C221.2,185.6,221.3,185.5,221.4,185.5z
				 M217.1,198h14.4c0.3,0,0.4,0.1,0.4,0.3v9.3c0,0.2-0.1,0.3-0.4,0.3h-1c-0.3,0-0.4-0.1-0.4-0.3v-1.3h-11.8v1.2
				c0,0.2-0.1,0.3-0.4,0.3h-1c-0.3,0-0.4-0.1-0.4-0.3v-9.1C216.7,198.2,216.9,198,217.1,198z M218.4,204.8h11.8v-5.2h-11.8V204.8z"
				/>
		</g>
	</g>
	<g>
		<g>
			<path class="st7" d="M222.4,14.7c19.6,19.6,19.6,51.4,0,71.1s-51.4,19.6-71.1,0L222.4,14.7z"/>
			<path class="st8" d="M151.4,85.8c-19.6-19.6-19.6-51.4,0-71.1s51.4-19.6,71.1,0L151.4,85.8z"/>
		</g>
		<g>
			<path d="M171.8,44.1c0.1,0,0.7,0.4,1.7,1.3c0,0.2-0.1,0.4-0.4,0.5c-0.3,0.1-0.5,0.2-0.6,0.3c-0.9,1-1.8,1.9-2.8,2.6v12.6
				c0,0.2-0.1,0.3-0.4,0.3h-1c-0.3,0-0.4-0.1-0.4-0.3V50.1c-0.9,0.6-2,1.3-3.4,2.1c-0.5-0.5-0.8-0.9-1.1-1.1
				c-0.1-0.1-0.2-0.2-0.2-0.3s0-0.1,0.1-0.2c1.9-0.9,3.6-1.9,5-3.2c1.1-0.9,2.2-2,3.2-3.3C171.6,44.1,171.7,44.1,171.8,44.1z
				 M170.4,38.8l1.5,1.1c0.2,0.1,0.3,0.3,0.3,0.5c0,0.1-0.1,0.2-0.4,0.2c-0.4,0-0.7,0.1-0.8,0.3c-2.1,1.9-4,3.3-5.8,4.2
				c-0.2,0-0.3-0.1-0.4-0.2c-0.2-0.3-0.5-0.5-0.7-0.7c-0.1-0.1-0.2-0.2-0.2-0.3s0-0.1,0.1-0.1c0.6-0.2,1.2-0.6,1.8-1
				c0.9-0.5,1.7-1.1,2.4-1.7c0.7-0.6,1.2-1.3,1.7-2C170.2,38.9,170.3,38.8,170.4,38.8z M173.7,46.8h12.6c0.2,0,0.3,0.1,0.3,0.4V48
				c0,0.3-0.1,0.4-0.3,0.4h-3.8V60c0,1.3-1,1.9-3.1,1.9l-2.1-0.1c-0.1,0-0.2-0.2-0.2-0.5c0-0.4-0.2-0.8-0.4-1.3v-0.1
				c0.9,0.2,1.8,0.3,2.6,0.3c0.9,0,1.4-0.3,1.4-0.9V48.4h-7c-0.2,0-0.3-0.1-0.3-0.4v-0.8C173.4,46.9,173.5,46.8,173.7,46.8z M175,40
				h9.9c0.2,0,0.3,0.1,0.3,0.4v0.8c0,0.3-0.1,0.4-0.3,0.4H175c-0.2,0-0.3-0.1-0.3-0.4v-0.8C174.7,40.1,174.8,40,175,40z"/>
			<path d="M190,41.1h10.1c0.2,0,0.3,0.1,0.3,0.4v0.8c0,0.2-0.1,0.4-0.3,0.4h-3.4v6.2h3c0.2,0,0.3,0.1,0.3,0.4v0.8
				c0,0.3-0.1,0.4-0.3,0.4h-3v6.8c1.2-0.4,2.5-0.9,3.6-1.3c0.1,0,0.1-0.1,0.2-0.1c0.1,0,0.2,0.1,0.2,0.2c0,0.9,0,1.3-0.1,1.4
				c-3.3,1.3-6.7,2.4-10.1,3.4c-0.2,0.5-0.4,0.7-0.6,0.7c-0.1,0-0.5-0.7-1-2.1c0.6-0.1,1.2-0.3,1.9-0.4V46.7c0-0.2,0.1-0.3,0.4-0.3
				c1.3,0,1.9,0.1,1.9,0.3s-0.1,0.3-0.2,0.4c-0.2,0-0.2,0.2-0.2,0.5v11c0.5-0.2,1.1-0.3,1.7-0.5c0.2,0,0.4-0.1,0.6-0.1V42.7h-5
				c-0.2,0-0.3-0.1-0.3-0.4v-0.8C189.7,41.2,189.8,41.1,190,41.1z M203.5,38.6c1.2,0.6,1.8,1,1.8,1.1s0,0.2-0.1,0.2
				c-0.2,0-0.4,0.1-0.4,0.3c-0.2,0.7-0.4,1.4-0.6,2h7.8c0.2,0,0.3,0.1,0.3,0.4v0.8c0,0.2-0.1,0.4-0.3,0.4h-1.2
				c-0.1,3.4-0.3,5.8-0.7,7.4c-0.5,2.2-1.2,4-2.1,5.4c-0.1,0.1-0.1,0.2-0.2,0.3c0.6,0.7,1.2,1.3,1.8,1.8c0.9,0.7,1.9,1.3,3.1,1.7
				c0,0.1-0.1,0.2-0.2,0.3c-0.3,0.3-0.6,0.6-0.9,0.9c-0.1,0.1-0.2,0.2-0.3,0.2c-1.6-0.9-2.7-1.5-3.1-2c-0.6-0.4-1.1-0.9-1.6-1.5
				c-0.4,0.4-0.8,0.8-1.3,1.2c-1,0.8-2.3,1.6-3.8,2.2c-0.4-0.5-0.8-0.9-1.2-1.3c0.8-0.3,1.8-0.8,2.9-1.6c0.9-0.7,1.7-1.4,2.4-2.1
				c-0.4-0.6-0.7-1.2-1-1.9c-0.5-1-0.9-2.3-1.2-3.7c-0.2-1.3-0.4-2.7-0.4-4.4h1.6c0,1.5,0.2,2.9,0.4,4c0.3,1.1,0.6,2.2,1,3.2
				c0.2,0.4,0.4,0.9,0.6,1.3c0.8-1.4,1.3-2.9,1.7-4.5s0.6-3.9,0.7-7.1h-5.5c-0.2,0.5-0.5,1-0.7,1.4c-0.4,0.7-1,1.6-1.8,2.9
				c-0.2,0-0.3-0.1-0.4-0.2c-0.2-0.2-0.4-0.4-0.7-0.6c-0.1-0.1-0.1-0.2-0.1-0.3c0.5-0.6,0.9-1.3,1.3-2c0.6-0.9,1.1-2,1.6-3.1
				c0.4-1,0.7-2,0.9-3C203.4,38.7,203.4,38.6,203.5,38.6z"/>
		</g>
	</g>
	<g>
		<g>
			<path class="st9" d="M93.8,107.8c19.6,19.6,19.6,51.4,0,71.1s-51.4,19.6-71.1,0L93.8,107.8z"/>
			<path class="st10" d="M22.7,178.8c-19.6-19.6-19.6-51.4,0-71.1s51.4-19.6,71.1,0L22.7,178.8z"/>
		</g>
		<g>
			<path d="M39.4,131.5l1.7,0.7c0.2,0.1,0.3,0.2,0.3,0.3s-0.1,0.2-0.2,0.3c-0.2,0-0.3,0.1-0.3,0.2c-0.1,0.3-0.2,0.5-0.3,0.7h6.3
				c0.1,0,0.2,0.1,0.2,0.3v0.8c0,0.2-0.1,0.3-0.2,0.3h-3.7c0.5,0.6,1,1.2,1.5,1.9c0,0.2,0,0.4-0.1,0.4c-0.6,0.4-1,0.6-1.3,0.6
				c-0.7-1.1-1.3-2.1-1.9-2.9H40c0,0.1-0.1,0.1-0.1,0.2c-0.4,0.6-0.8,1.1-1.2,1.6c-0.4,0.4-0.9,0.8-1.4,1.2c-0.2,0-0.4,0-0.5-0.1
				c-0.3-0.1-0.7-0.2-1-0.3c-0.1-0.1-0.1-0.1-0.1-0.2c0-0.1,0-0.1,0.1-0.2c0.8-0.5,1.4-1.2,2-2.1c0.3-0.4,0.7-0.9,0.9-1.5
				C39,133.1,39.3,132.4,39.4,131.5C39.3,131.6,39.4,131.5,39.4,131.5z M46.1,137.2c1.3,0,1.9,0.1,1.9,0.3s-0.1,0.3-0.2,0.4
				c-0.2,0-0.2,0.2-0.2,0.5v0.5h9.7c0.3,0,0.4,0.1,0.4,0.3v4.7c0,0.2-0.1,0.3-0.4,0.3h-1c-0.3,0-0.4-0.1-0.4-0.3v-3.5H37.4v3.5
				c0,0.2-0.1,0.3-0.4,0.3h-1c-0.3,0-0.4-0.1-0.4-0.3v-4.7c0-0.2,0.1-0.3,0.4-0.3h9.7v-1.4C45.7,137.3,45.8,137.2,46.1,137.2z
				 M40.4,141.9h12.9c0.3,0,0.4,0.1,0.4,0.3v4.4c0,0.3-0.1,0.4-0.4,0.4H41.8v1.7h12c0.3,0,0.4,0.1,0.4,0.3v5.6
				c0,0.2-0.1,0.3-0.4,0.3h-1c-0.3,0-0.4-0.1-0.4-0.3v-0.8H41.8v0.8c0,0.2-0.1,0.3-0.4,0.3h-1c-0.3,0-0.4-0.1-0.4-0.3v-12.4
				C40,142,40.2,141.9,40.4,141.9z M41.8,145.5h10.1v-2.1H41.8V145.5z M41.8,152.4h10.6v-2.2H41.8V152.4z M50.3,131.6l1.7,0.7
				c0.2,0.1,0.3,0.2,0.3,0.3s-0.1,0.2-0.2,0.3c-0.1,0-0.2,0.1-0.2,0.2c-0.1,0.2-0.1,0.4-0.2,0.6h6.2c0.1,0,0.2,0.1,0.2,0.3v0.8
				c0,0.2-0.1,0.3-0.2,0.3h-3.4c0.5,0.6,1.1,1.2,1.5,1.9c0,0.2,0,0.4-0.1,0.4c-0.6,0.4-1,0.6-1.3,0.6c-0.7-1.1-1.4-2.1-2-2.9H51
				c-0.2,0.4-0.5,0.9-0.7,1.3c-0.3,0.4-0.6,0.7-0.9,1c-0.2,0-0.4,0-0.5-0.1c-0.3-0.1-0.6-0.3-1-0.4c-0.1,0-0.2-0.1-0.2-0.1v-0.1
				c0.5-0.5,1-1.1,1.3-1.8c0.2-0.4,0.5-0.8,0.6-1.3c0.2-0.5,0.4-1.1,0.5-1.9C50.2,131.7,50.3,131.6,50.3,131.6z"/>
			<path d="M60.8,133.5h8.1c0.2,0,0.3,0.1,0.3,0.4v0.8c0,0.3-0.1,0.4-0.3,0.4h-3.3v5.6h2.8c0.2,0,0.3,0.1,0.3,0.4v0.8
				c0,0.2-0.1,0.4-0.3,0.4h-2.8v6.2c1.1-0.4,2.1-0.8,3.1-1.2h0.1c0.1,0,0.2,0.1,0.2,0.3c0,0.9,0,1.4-0.1,1.5c-2.3,1-4.6,1.8-7,2.6
				c-0.3,0.5-0.5,0.7-0.7,0.7c-0.1,0-0.5-0.7-1-2.2c1-0.2,2.2-0.6,3.6-1v-6.8h-2.7c-0.2,0-0.3-0.1-0.3-0.4v-0.8
				c0-0.2,0.1-0.4,0.3-0.4h2.7v-5.6h-3c-0.2,0-0.3-0.1-0.3-0.4V134C60.5,133.7,60.6,133.5,60.8,133.5z M70.7,132.6h11.5
				c0.3,0,0.4,0.1,0.4,0.3v11c0,0.2-0.1,0.3-0.4,0.3h-4.9v3h5.2c0.2,0,0.3,0.1,0.3,0.4v0.8c0,0.3-0.1,0.4-0.3,0.4h-5.2v3.5h5.9
				c0.2,0,0.3,0.1,0.3,0.4v0.8c0,0.2-0.1,0.4-0.3,0.4H69.4c-0.2,0-0.3-0.1-0.3-0.4v-0.8c0-0.3,0.1-0.4,0.3-0.4h6.1v-3.5h-4.8
				c-0.2,0-0.3-0.1-0.3-0.4v-0.8c0-0.2,0.1-0.4,0.3-0.4h4.8v-3h-4.8c-0.3,0-0.4-0.1-0.4-0.3v-11C70.3,132.7,70.5,132.6,70.7,132.6z
				 M72.1,137.6h3.4v-3.4h-3.4V137.6z M75.5,142.6v-3.4h-3.4v3.4H75.5z M77.3,134.2v3.4h3.5v-3.4H77.3z M80.8,142.6v-3.4h-3.5v3.4
				H80.8z"/>
		</g>
	</g>
	<g>
		<path class="st11" d="M301.6,259.3c19.6,19.6,19.6,51.4,0,71.1c-19.6,19.6-51.4,19.6-71.1,0L301.6,259.3z"/>
		<path class="st12" d="M230.6,330.3c-19.6-19.6-19.6-51.4,0-71.1s51.4-19.6,71.1,0L230.6,330.3z"/>
		<g>
			<path d="M243.7,282.5c1.2,0.3,1.8,0.5,1.8,0.6s-0.1,0.2-0.2,0.3c-0.2,0.1-0.3,0.3-0.3,0.4c-0.1,1.5-0.3,2.7-0.5,3.7
				c-0.1,0.5-0.3,1.1-0.5,1.6c0,0.1-0.1,0.2-0.1,0.2c-0.5-0.2-1-0.3-1.4-0.3c-0.1,0-0.2-0.1-0.2-0.2c0.3-0.7,0.5-1.5,0.7-2.3
				s0.4-2.1,0.5-3.7C243.5,282.6,243.6,282.5,243.7,282.5z M247.4,267.6l1.9,1c0.1,0.1,0.1,0.2,0.1,0.2c0,0.1-0.1,0.2-0.4,0.2
				c-0.4,0-0.6,0.1-0.7,0.3c-0.9,1.3-1.8,2.6-2.6,3.7c0.5,0.5,1,1,1.5,1.6l0,0c1-1.3,1.8-2.5,2.4-3.5c1.2,1,1.8,1.5,1.8,1.6
				s-0.1,0.1-0.3,0.1c-0.4,0-0.6,0.1-0.7,0.2c-1.5,2-2.9,3.9-4.3,5.6c1.1-0.1,2.4-0.3,4-0.4c-0.2-0.6-0.5-1.2-0.7-1.8
				c0-0.1,0.4-0.4,1.3-0.8c0.4,0.9,0.8,1.8,1,2.6c0.2,0.7,0.5,1.5,0.6,2.3c0,0.1-0.5,0.2-1.5,0.5c0-0.5-0.2-1.1-0.4-1.7l-2.3,0.6
				v10.6c0,0.2-0.1,0.3-0.4,0.3h-1c-0.2,0-0.4-0.1-0.4-0.3v-10.1l-2.7,0.7c-0.4,0.4-0.6,0.7-0.7,0.7c-0.1,0-0.2-0.8-0.5-2.4
				c0-0.1,0.4-0.2,1.3-0.3c1.1-1.3,2-2.4,2.7-3.4c-0.8-0.7-1.4-1.2-1.8-1.5c-0.6-0.5-1.3-0.9-2-1.2c0-0.1,0.3-0.5,1-1.2
				c0-0.1,0.1-0.1,0.2-0.1c0.2,0.2,0.4,0.3,0.7,0.5c0.5-0.6,0.9-1.3,1.3-1.9C246.6,269.1,247.1,268.2,247.4,267.6z M250.3,282.2
				c0,0,0.1,0.1,0.1,0.2c0.4,1,0.9,2.6,1.4,4.8c0,0.1-0.5,0.3-1.4,0.4c-0.2,0-0.3-0.1-0.3-0.2c-0.2-1.5-0.6-3.1-1-4.8
				C249.1,282.5,249.5,282.3,250.3,282.2z M252.5,281.1h4c0.3,0,0.5,0,0.6,0.1c0.5,0.4,0.7,0.7,0.7,0.9c-0.6,1.7-1.2,3-1.8,3.9
				c-0.5,0.8-1,1.5-1.6,2.2c-0.6,0.6-1.4,1.3-2.2,2c-0.1,0-0.2,0-0.2-0.1c-0.3-0.4-0.5-0.8-0.7-1.1c-0.1,0-0.1-0.1-0.1-0.1
				c0-0.1,0-0.2,0.1-0.3c0.5-0.3,1.1-0.7,1.7-1.2c0.6-0.5,1.2-1.2,1.8-2.1c0.4-0.5,0.8-1.2,1.1-2.1c0.1-0.2,0.1-0.3,0.2-0.5h-3.5
				c-0.2,0-0.3-0.1-0.3-0.4v-0.8C252.2,281.2,252.3,281.1,252.5,281.1z M258.6,267.5l1.4,0.3c0.2,0,0.3,0.2,0.3,0.3
				c0,0.2-0.1,0.4-0.3,0.4c-0.1,0-0.2,0.2-0.3,0.3c-0.2,0.4-0.4,0.8-0.6,1.1h5.3c0.3,0,0.4,0.1,0.4,0.3v8.7c0,0.2-0.1,0.3-0.4,0.3
				h-4.3v1.2c0.4,1,0.7,1.9,1,2.7c0.3-0.2,0.7-0.4,0.9-0.7c0.6-0.4,1.2-1,1.7-1.8c0.1-0.1,0.2-0.1,0.2-0.1c0.9,0.8,1.4,1.3,1.4,1.4
				s-0.1,0.2-0.3,0.2c-0.3,0-0.5,0-0.5,0.1c-0.9,0.9-1.8,1.7-2.7,2.3c0.4,0.6,0.8,1.2,1.1,1.6c0.5,0.6,1,1.1,1.6,1.6
				c0.5,0.4,1,0.8,1.6,1.1c0,0.1-0.1,0.2-0.2,0.3c-0.2,0.2-0.4,0.5-0.6,0.8c0,0.1-0.2,0.1-0.3,0.1c-0.7-0.4-1.5-0.9-2.2-1.6
				c-0.6-0.6-1.1-1.3-1.6-2c-0.4-0.6-0.8-1.3-1.2-2.1v4.4c0,1.3-1,1.9-3.1,1.9H256c-0.1,0-0.2-0.2-0.2-0.5c0-0.4-0.2-0.8-0.4-1.3
				v-0.1c0.5,0.1,1,0.2,1.4,0.2c0.9,0,1.4-0.3,1.4-0.9v-8.9h-4.4c-0.3,0-0.4-0.1-0.4-0.3v-8.7c0-0.2,0.1-0.3,0.4-0.3h3.4
				c0.3-0.6,0.6-1.4,1-2.3C258.3,267.6,258.4,267.5,258.6,267.5z M255.2,273.9h7.9v-2.4h-7.9L255.2,273.9L255.2,273.9z M263.1,277.8
				v-2.4h-7.9v2.4H263.1z"/>
			<path d="M278.3,267.7c1.3,0,2,0.1,2,0.3c0,0.2-0.1,0.4-0.2,0.4c-0.2,0-0.2,0.2-0.2,0.5v7.9h9.1c0.2,0,0.3,0.1,0.3,0.4v1
				c0,0.3-0.1,0.4-0.3,0.4h-9.1v9.8H291c0.2,0,0.3,0.1,0.3,0.4v1c0,0.2-0.1,0.4-0.3,0.4h-22.1c-0.2,0-0.3-0.1-0.3-0.4v-1
				c0-0.3,0.1-0.4,0.3-0.4h9.1V268C277.9,267.8,278,267.7,278.3,267.7z"/>
			<path d="M243.9,301.5h3.7V299c0-0.2,0.1-0.3,0.4-0.3c1.3,0,1.9,0.1,1.9,0.3c0,0.2-0.1,0.3-0.2,0.4c-0.2,0-0.2,0.2-0.2,0.5v1.7
				h3.2c0.2,0,0.3,0.1,0.3,0.4v0.8c0,0.3-0.1,0.4-0.3,0.4h-3.2v2.6h2.1c0.5-0.5,1-1.1,1.4-1.8c0.6-1,1.2-2.1,1.7-3.3
				c0-0.1,0.1-0.2,0.1-0.2l1.6,0.7c0.2,0.1,0.3,0.2,0.3,0.3c0,0.1-0.1,0.1-0.3,0.1c-0.2,0-0.3,0.1-0.4,0.2c-0.8,1.6-1.5,2.8-2.3,3.8
				h1.1c0.2,0,0.3,0.1,0.3,0.4v0.8c0,0.3-0.1,0.4-0.3,0.4h-2.3c-0.7,0.8-1.5,1.5-2.3,2.1c-0.1,0.1-0.3,0.3-0.4,0.4h3.4
				c0.2,0,0.4,0,0.4,0.1c0.3,0.3,0.5,0.5,0.5,0.7l-3.6,3.8c0,0,0,0-0.1,0v0.5c1.4-0.3,2.8-0.6,4.1-0.8c0,0,0.1,0,0.2,0
				c0.1,0,0.2,0.1,0.2,0.2c0,0.8,0,1.3-0.1,1.4c-1.5,0.3-2.9,0.6-4.4,0.8v3.6c0,1.2-0.9,1.8-2.6,1.8l-1.6-0.2
				c-0.1,0-0.1-0.1-0.2-0.4c0-0.4-0.2-0.7-0.4-1.1c0-0.1,0-0.2,0.1-0.2c0.9,0.3,1.6,0.4,2.1,0.4s0.8-0.3,0.8-0.9v-2.6
				c-1.3,0.2-2.6,0.4-3.9,0.6c-0.2,0.5-0.4,0.7-0.6,0.7s-0.5-0.7-1-2.1c1.5-0.2,3.3-0.5,5.4-0.8h0.1v-2.1c0-0.2,0.1-0.3,0.4-0.3
				l0.5,0.2l1.7-1.7h-3.9c-0.3,0.2-0.7,0.4-1,0.6c-0.9,0.4-1.7,0.8-2.4,1c-0.2,0-0.4-0.1-0.4-0.2c-0.2-0.4-0.5-0.9-0.9-1.3
				c1.2-0.4,2.4-0.9,3.6-1.5c1.4-0.8,2.7-1.6,3.8-2.6l0,0h-6.8c-0.2,0-0.3-0.1-0.3-0.4v-0.8c0-0.3,0.1-0.4,0.3-0.4h4.5v-2.6H244
				c-0.2,0-0.3-0.1-0.3-0.4v-0.8C243.6,301.7,243.7,301.5,243.9,301.5z M258.7,298.6l1.7,0.7c0.2,0.1,0.2,0.2,0.2,0.3
				c0,0.1-0.1,0.2-0.2,0.3c-0.2,0-0.3,0.1-0.3,0.4c-0.2,1.1-0.4,2-0.6,2.8h6.3c0.2,0,0.3,0.1,0.3,0.4v0.8c0,0.2-0.1,0.4-0.3,0.4
				h-1.4c-0.1,3.2-0.3,5.5-0.7,6.9c-0.5,2-1.2,3.7-2,5.1c0.3,0.4,0.7,0.8,1.1,1.1c1,0.9,2.3,1.8,3.8,2.6c0,0.1-0.1,0.2-0.2,0.3
				c-0.3,0.2-0.6,0.5-1,0.8c-0.1,0.1-0.3,0.1-0.4,0.1c-0.9-0.5-1.8-1.2-2.7-1.9c-0.6-0.5-1.2-1-1.6-1.5c-0.5,0.5-1,1-1.6,1.4
				c-1,0.8-2.2,1.5-3.8,2.1c-0.4-0.5-0.8-0.9-1.2-1.3c0.8-0.3,1.8-0.8,2.9-1.5c1-0.7,1.9-1.4,2.5-2.2c-0.5-0.9-1-1.9-1.5-3.1
				c-0.4-1.1-0.6-2.5-0.8-4.2c-0.2,0.3-0.4,0.6-0.5,0.9c-0.2,0-0.4,0-0.5-0.1c-0.3-0.1-0.6-0.2-1-0.3c-0.1,0-0.2-0.1-0.2-0.1
				c0-0.1,0-0.2,0.1-0.3c0.7-1,1.4-2.3,1.9-3.7c0.3-0.9,0.6-1.8,0.9-2.8s0.5-2.3,0.8-3.9C258.5,298.7,258.6,298.6,258.7,298.6z
				 M257.6,308.2h0.5c0.3,0,0.5,0.1,0.5,0.4c0.1,1.6,0.3,2.9,0.6,3.8c0.3,0.9,0.6,1.7,1.1,2.6c0.6-1.2,1.1-2.4,1.4-3.8
				c0.4-1.5,0.6-3.7,0.7-6.6H259l0,0c-0.3,1.1-0.7,2.2-1.1,3.1C257.8,308,257.7,308.1,257.6,308.2z"/>
			<path d="M275.8,299.5c-0.5,0.4-1.2,0.7-2,0.9c-0.4,0.1-0.9,0.2-1.4,0.2v1.7h3.5c0.1,0,0.2,0.1,0.2,0.3v0.8c0,0.2-0.1,0.4-0.2,0.4
				h-3.5v1.7h3.5c0.1,0,0.2,0.1,0.2,0.3v0.8c0,0.2-0.1,0.4-0.2,0.4h-3.5v1.8h15V307h-3.1c-0.1,0-0.2-0.1-0.2-0.4v-0.8
				c0-0.2,0.1-0.3,0.2-0.3h3.1v-1.7h-3.1c-0.1,0-0.2-0.1-0.2-0.4v-0.8c0-0.2,0.1-0.3,0.2-0.3h3.1v-1.8h-3.1c-0.1,0-0.2-0.1-0.2-0.4
				v-0.8c0-0.2,0.1-0.3,0.2-0.3h4.5c0.3,0,0.4,0.1,0.4,0.3v9.5h1.7c0.3,0,0.4,0.1,0.4,0.3v4.1c0,0.2-0.1,0.3-0.4,0.3h-1
				c-0.3,0-0.4-0.1-0.4-0.3v-2.9h-19.1v2.9c0,0.2-0.1,0.3-0.4,0.3h-1c-0.3,0-0.4-0.1-0.4-0.3v-4.1c0-0.2,0.1-0.3,0.4-0.3h1.7v-9.7
				c0-0.2,0.1-0.3,0.3-0.3l1,0.4c0.7,0,1.2-0.1,1.6-0.2c0.7-0.1,1.3-0.4,1.8-0.8c0,0,0.1,0,0.2,0s0.2,0,0.3,0.1
				c0.6,0.7,0.9,1.1,0.9,1.1c0,0.2-0.1,0.3-0.2,0.3L275.8,299.5z M274.4,311.5h10.3c0.2,0,0.4,0,0.4,0.1c0.3,0.3,0.5,0.5,0.5,0.6
				l-4.4,3.7h-0.1v0.3h9.6c0.1,0,0.2,0.1,0.2,0.3v0.8c0,0.3-0.1,0.4-0.2,0.4h-9.6v2.3c0,1.2-0.9,1.8-2.6,1.8H277
				c-0.1,0-0.1-0.1-0.2-0.4c0-0.4-0.2-0.8-0.4-1.2c0-0.1,0-0.2,0.1-0.2c0.9,0.1,1.6,0.2,2.1,0.2s0.8-0.3,0.8-0.9v-1.6h-10
				c-0.1,0-0.2-0.1-0.2-0.4v-0.8c0-0.2,0.1-0.3,0.2-0.3h10v-1.5c0-0.2,0.1-0.3,0.4-0.3l0.6,0.2l2-1.6h-8c-0.2,0-0.3-0.1-0.3-0.4
				v-0.8C274.1,311.6,274.2,311.5,274.4,311.5z M281.9,298.4l1.1,0.8c0.1,0.1,0.1,0.2,0.1,0.3c0,0.1-0.1,0.1-0.2,0.1
				c-0.2,0-0.4,0.1-0.5,0.2c-0.3,0.4-0.6,0.7-1,1c0.7,0.5,1.3,0.9,1.9,1.3c0,0,0,0.1-0.1,0.2c-0.4,0.6-0.6,0.9-0.7,0.9
				c-0.7-0.5-1.4-1-2.1-1.5c-0.7,0.5-1.5,1.1-2.5,1.6c-0.2,0-0.3-0.1-0.3-0.2c-0.3-0.2-0.5-0.4-0.7-0.5c-0.1,0-0.1-0.1-0.1-0.2
				c0,0,0-0.1,0.1-0.1c0.5-0.2,1-0.4,1.3-0.6c0.4-0.2,0.7-0.4,1-0.7c-0.9-0.5-1.6-0.9-2.2-1.1c0-0.1,0.2-0.3,0.6-0.8
				c0.1-0.1,0.1-0.1,0.2-0.1c1,0.4,1.8,0.8,2.5,1.2c0.4-0.4,0.9-1,1.4-1.6C281.8,298.5,281.8,298.4,281.9,298.4z M281.9,303.5
				l1.1,0.8c0.1,0.1,0.1,0.2,0.1,0.2s-0.1,0.1-0.2,0.1c-0.2,0-0.4,0.1-0.5,0.2c-0.3,0.3-0.6,0.6-0.9,0.9c0.6,0.5,1.2,0.9,1.7,1.2
				c0,0,0,0.1-0.1,0.2c-0.4,0.6-0.7,0.9-0.7,0.9c-0.6-0.5-1.3-1-1.9-1.5c-0.7,0.5-1.6,1.1-2.6,1.6c-0.2,0-0.3,0-0.3-0.1
				c-0.3-0.2-0.5-0.4-0.7-0.6c-0.1,0-0.1-0.1-0.1-0.2c0,0,0-0.1,0.1-0.1c0.5-0.2,1-0.4,1.3-0.6c0.4-0.2,0.8-0.5,1.1-0.7
				c0,0,0,0-0.1,0c-0.9-0.6-1.7-1-2.3-1.2c0-0.1,0.2-0.4,0.6-0.9c0.1-0.1,0.1-0.1,0.2-0.1c1,0.5,1.9,1,2.6,1.4
				c0.4-0.4,0.9-0.9,1.3-1.4C281.8,303.6,281.8,303.5,281.9,303.5z"/>
		</g>
	</g>
	<g>
		<path class="st13" d="M143.7,258.7c19.6,19.6,19.6,51.4,0,71.1s-51.4,19.6-71.1,0L143.7,258.7z"/>
		<path class="st14" d="M72.7,329.8c-19.6-19.6-19.6-51.4,0-71.1s51.4-19.6,71.1,0L72.7,329.8z"/>
		<g>
			<path d="M90.2,272.3h13.1c0.3,0,0.4,0.1,0.4,0.3v2.4h4c0.1,0,0.2,0.1,0.2,0.3v0.6c0,0.2-0.1,0.4-0.2,0.4h-4v2.4
				c0,0.2-0.1,0.3-0.4,0.3H90.2c-0.3,0-0.4-0.1-0.4-0.3v-2.4h-4.5c-0.1,0-0.2-0.1-0.2-0.4v-0.6c0-0.2,0.1-0.3,0.2-0.3h4.5v-2.4
				C89.8,272.4,89.9,272.3,90.2,272.3z M96.2,268c1.3,0,1.9,0.1,1.9,0.3c0,0.2-0.1,0.4-0.3,0.4c-0.2,0-0.2,0.2-0.2,0.5v0.6h9.4
				c0.3,0,0.4,0.1,0.4,0.3v3.6c0,0.2-0.1,0.3-0.4,0.3h-1c-0.3,0-0.4-0.1-0.4-0.3v-2.5H87.4v2.5c0,0.2-0.1,0.3-0.4,0.3h-1
				c-0.3,0-0.4-0.1-0.4-0.3V270c0-0.2,0.1-0.3,0.4-0.3h9.8v-1.5C95.8,268.1,95.9,268,96.2,268z M93.4,288.4c0.8,0.7,1.2,1.1,1.2,1.2
				s-0.1,0.2-0.2,0.2c-0.3,0-0.4,0-0.5,0.1c-2,0.6-4.1,1.1-6.3,1.5c-0.2,0-0.3-0.1-0.4-0.2c-0.1-0.2-0.2-0.4-0.5-0.6
				c-0.1-0.1-0.1-0.2-0.1-0.2c0-0.1,0.1-0.1,0.3-0.1c1.1-0.2,2.1-0.4,3-0.7c1-0.3,2.1-0.6,3.2-1.1C93.2,288.4,93.3,288.4,93.4,288.4
				z M89.8,280.2h13.6c0.3,0,0.4,0.1,0.4,0.3v7.6c0,0.2-0.1,0.3-0.4,0.3H89.8c-0.3,0-0.4-0.1-0.4-0.3v-7.6
				C89.4,280.3,89.5,280.2,89.8,280.2z M91.2,282.6H102v-1.2H91.2V282.6z M91.2,285H102v-1.3H91.2V285z M102,287.2v-1.1H91.2v1.1
				H102z M91.5,275.1h4.2v-1.5h-4.2V275.1z M95.7,277.8v-1.5h-4.2v1.5H95.7z M97.4,273.5v1.5h4.6v-1.5H97.4z M102,277.8v-1.5h-4.6
				v1.5H102z M99.7,288.4c1.4,0.3,2.6,0.6,3.5,0.8c1.1,0.3,2,0.6,2.8,0.9c0,0,0,0.1-0.1,0.2c-0.5,0.7-0.8,1.1-0.8,1.1
				c-1.2-0.4-2.4-0.8-3.7-1.1c-1.1-0.3-2-0.5-2.7-0.6c0-0.1,0.3-0.5,0.8-1.1C99.6,288.4,99.6,288.4,99.7,288.4z"/>
			<path d="M111.9,268.6h6.9c0.3,0,0.4,0.1,0.4,0.3v5.7h1c0.3,0,0.4,0.1,0.4,0.3v3.4c0,0.2-0.1,0.3-0.4,0.3h-0.8
				c-0.3,0-0.4-0.1-0.4-0.3v-2.2h-7.2v2.2c0,0.2-0.1,0.3-0.4,0.3h-0.8c-0.3,0-0.4-0.1-0.4-0.3v-3.4c0-0.2,0.1-0.3,0.4-0.3h0.9v-5.7
				C111.5,268.7,111.7,268.6,111.9,268.6z M112.4,277.7h6c0.3,0,0.4,0.1,0.4,0.3v10.3c0,0.8-0.1,1.3-0.3,1.5c0,0.3-0.8,0.7-2.3,1
				c-0.3,0-0.4-0.1-0.4-0.3c0-0.3-0.2-0.7-0.3-1.3c1.2-0.1,1.8-0.4,1.8-0.9v-2.6h-3.6v4.8c0,0.2-0.1,0.3-0.4,0.3h-0.8
				c-0.3,0-0.4-0.1-0.4-0.3V278C112,277.8,112.2,277.7,112.4,277.7z M113.1,274.5h1.6v-2.8c0-0.2,0.1-0.3,0.3-0.3h2.6V270h-4.5
				V274.5z M113.6,280.9h3.6v-1.7h-3.6V280.9z M113.6,284.3h3.6v-1.9h-3.6V284.3z M116.2,274.5h1.4v-1.7h-1.4V274.5z M123.7,286.2
				c0.6,0.6,1.1,1.2,1.4,1.7c0.2,0.3,0.4,0.7,0.6,1h3.1c0.4-0.4,0.7-0.7,0.9-1c0.4-0.5,0.7-0.9,0.8-1.4c0-0.1,0.1-0.2,0.2-0.2
				l1.3,0.5c0.2,0.1,0.3,0.2,0.3,0.3c0,0.1-0.1,0.1-0.2,0.2c-0.2,0-0.3,0.1-0.4,0.2c-0.3,0.5-0.6,1-0.9,1.4h2.4
				c0.1,0,0.2,0.1,0.2,0.3v0.8c0,0.3-0.1,0.4-0.2,0.4H121c-0.1,0-0.2-0.1-0.2-0.4v-0.8c0-0.2,0.1-0.3,0.2-0.3h3.1
				c-0.1-0.1-0.1-0.2-0.2-0.3c-0.3-0.5-0.8-1.1-1.4-1.7C122.6,286.8,123,286.6,123.7,286.2z M122.1,269.8h2.8v-1.6
				c0-0.1,0.1-0.2,0.3-0.2c1,0,1.5,0.1,1.5,0.2c0,0.2,0,0.3-0.1,0.3s-0.1,0.2-0.1,0.4v0.8h1.7v-1.6c0-0.1,0.1-0.2,0.3-0.2
				c1,0,1.5,0.1,1.5,0.2c0,0.2-0.1,0.3-0.2,0.3s-0.1,0.2-0.1,0.4v0.8h2.8c0.3,0,0.4,0.1,0.4,0.3v6.7c0,0.2-0.1,0.3-0.4,0.3h-10.3
				c-0.3,0-0.4-0.1-0.4-0.3V270C121.7,269.9,121.8,269.8,122.1,269.8z M122,278.3h10.6c0.1,0,0.2,0.1,0.2,0.3v0.8
				c0,0.3-0.1,0.4-0.2,0.4H122c-0.1,0-0.2-0.1-0.2-0.4v-0.8C121.8,278.4,121.9,278.3,122,278.3z M122.4,280.9h9.9
				c0.3,0,0.4,0.1,0.4,0.3v4.2c0,0.2-0.1,0.3-0.4,0.3h-9.9c-0.3,0-0.4-0.1-0.4-0.3v-4.2C122,281,122.1,280.9,122.4,280.9z
				 M123.3,272.8h1.6v-1.6h-1.6V272.8z M124.9,275.6V274h-1.6v1.6H124.9z M131,284.3v-2h-7.3v2H131z M126.4,271.1v1.6h1.7v-1.6
				H126.4z M128.1,275.6V274h-1.7v1.6H128.1z M129.6,271.1v1.6h1.6v-1.6H129.6z M131.2,275.6V274h-1.6v1.6H131.2z"/>
			<path d="M86,301.7h3.7v-2.6c0-0.2,0.1-0.3,0.4-0.3c1.3,0,1.9,0.1,1.9,0.3c0,0.2-0.1,0.3-0.2,0.4c-0.2,0-0.2,0.2-0.2,0.5v1.7h3.2
				c0.2,0,0.3,0.1,0.3,0.4v0.8c0,0.3-0.1,0.4-0.3,0.4h-3.2v2.6h2.1c0.5-0.5,1-1.1,1.4-1.8c0.6-1,1.2-2.1,1.7-3.3
				c0-0.1,0.1-0.2,0.1-0.2l1.6,0.7c0.2,0.1,0.3,0.2,0.3,0.3c0,0.1-0.1,0.1-0.3,0.1c-0.2,0-0.3,0.1-0.4,0.2c-0.8,1.6-1.5,2.8-2.3,3.8
				h1.1c0.2,0,0.3,0.1,0.3,0.4v0.8c0,0.3-0.1,0.4-0.3,0.4h-2.3c-0.7,0.8-1.5,1.5-2.3,2.1c-0.1,0.1-0.3,0.3-0.4,0.4h3.4
				c0.2,0,0.4,0,0.4,0.1c0.3,0.3,0.5,0.5,0.5,0.7l-3.6,3.8c0,0,0,0-0.1,0v0.5c1.4-0.3,2.8-0.6,4.1-0.8c0,0,0.1,0,0.2,0
				s0.2,0.1,0.2,0.2c0,0.8,0,1.3-0.1,1.4c-1.5,0.3-2.9,0.6-4.4,0.8v3.6c0,1.2-0.9,1.8-2.6,1.8l-1.6-0.2c-0.1,0-0.1-0.1-0.2-0.4
				c0-0.4-0.2-0.7-0.4-1.1c0-0.1,0-0.2,0.1-0.2c0.9,0.3,1.6,0.4,2.1,0.4s0.8-0.3,0.8-0.9V317c-1.3,0.2-2.6,0.4-3.9,0.6
				c-0.2,0.5-0.4,0.7-0.6,0.7s-0.5-0.7-1-2.1c1.5-0.2,3.3-0.5,5.4-0.8h0.1v-2.1c0-0.2,0.1-0.3,0.4-0.3l0.5,0.2l1.7-1.7h-3.9
				c-0.3,0.2-0.7,0.4-1,0.6c-0.9,0.4-1.7,0.8-2.4,1c-0.2,0-0.4-0.1-0.4-0.2c-0.2-0.4-0.5-0.9-0.9-1.3c1.2-0.4,2.4-0.9,3.6-1.5
				c1.4-0.8,2.7-1.6,3.8-2.6l0,0h-6.8c-0.2,0-0.3-0.1-0.3-0.4v-0.8c0-0.3,0.1-0.4,0.3-0.4h4.5v-2.6H86c-0.2,0-0.3-0.1-0.3-0.4v-0.8
				C85.7,301.8,85.8,301.7,86,301.7z M100.8,298.8l1.7,0.7c0.2,0.1,0.2,0.2,0.2,0.3c0,0.1-0.1,0.2-0.2,0.3c-0.2,0-0.3,0.1-0.3,0.4
				c-0.2,1.1-0.4,2-0.6,2.8h6.3c0.2,0,0.3,0.1,0.3,0.4v0.8c0,0.2-0.1,0.4-0.3,0.4h-1.4c-0.1,3.2-0.3,5.5-0.7,6.9
				c-0.5,2-1.2,3.7-2,5.1c0.3,0.4,0.7,0.8,1.1,1.1c1,0.9,2.3,1.8,3.8,2.6c0,0.1-0.1,0.2-0.2,0.3c-0.3,0.2-0.6,0.5-1,0.8
				c-0.1,0.1-0.3,0.1-0.4,0.1c-0.9-0.5-1.8-1.2-2.7-1.9c-0.6-0.5-1.2-1-1.6-1.5c-0.5,0.5-1,1-1.6,1.4c-1,0.8-2.2,1.5-3.8,2.1
				c-0.4-0.5-0.8-0.9-1.2-1.3c0.8-0.3,1.8-0.8,2.9-1.5c1-0.7,1.9-1.4,2.5-2.2c-0.5-0.9-1-1.9-1.5-3.1c-0.4-1.1-0.6-2.5-0.8-4.2
				c-0.2,0.3-0.4,0.6-0.5,0.9c-0.2,0-0.4,0-0.5-0.1c-0.3-0.1-0.6-0.2-1-0.3c-0.1,0-0.2-0.1-0.2-0.1c0-0.1,0-0.2,0.1-0.3
				c0.7-1,1.4-2.3,1.9-3.7c0.3-0.9,0.6-1.8,0.9-2.8s0.5-2.3,0.8-3.9C100.6,298.9,100.7,298.8,100.8,298.8z M99.8,308.3h0.5
				c0.3,0,0.5,0.1,0.5,0.4c0.1,1.6,0.3,2.9,0.6,3.8c0.3,0.9,0.6,1.7,1.1,2.6c0.6-1.2,1.1-2.4,1.4-3.8c0.4-1.5,0.6-3.7,0.7-6.6H101
				l0,0c-0.3,1.1-0.7,2.2-1.1,3.1C99.9,308.1,99.8,308.2,99.8,308.3z"/>
			<path d="M117.9,299.7c-0.5,0.4-1.2,0.7-2,0.9c-0.4,0.1-0.9,0.2-1.4,0.2v1.7h3.5c0.1,0,0.2,0.1,0.2,0.3v0.8c0,0.2-0.1,0.4-0.2,0.4
				h-3.5v1.7h3.5c0.1,0,0.2,0.1,0.2,0.3v0.8c0,0.2-0.1,0.4-0.2,0.4h-3.5v1.8h15v-1.8h-3.1c-0.1,0-0.2-0.1-0.2-0.4V306
				c0-0.2,0.1-0.3,0.2-0.3h3.1V304h-3.1c-0.1,0-0.2-0.1-0.2-0.4v-0.8c0-0.2,0.1-0.3,0.2-0.3h3.1v-1.8h-3.1c-0.1,0-0.2-0.1-0.2-0.4
				v-0.8c0-0.2,0.1-0.3,0.2-0.3h4.5c0.3,0,0.4,0.1,0.4,0.3v9.5h1.7c0.3,0,0.4,0.1,0.4,0.3v4.1c0,0.2-0.1,0.3-0.4,0.3h-1
				c-0.3,0-0.4-0.1-0.4-0.3v-2.9h-19.1v2.9c0,0.2-0.1,0.3-0.4,0.3h-1c-0.3,0-0.4-0.1-0.4-0.3v-4.1c0-0.2,0.1-0.3,0.4-0.3h1.7v-9.7
				c0-0.2,0.1-0.3,0.3-0.3l1,0.4c0.7,0,1.2-0.1,1.6-0.2c0.7-0.1,1.3-0.4,1.8-0.8c0,0,0.1,0,0.2,0s0.2,0,0.3,0.1
				c0.6,0.7,0.9,1.1,0.9,1.1c0,0.2-0.1,0.3-0.2,0.3L117.9,299.7z M116.5,311.6h10.3c0.2,0,0.4,0,0.4,0.1c0.3,0.3,0.5,0.5,0.5,0.6
				l-4.4,3.7h-0.1v0.3h9.6c0.1,0,0.2,0.1,0.2,0.3v0.8c0,0.3-0.1,0.4-0.2,0.4h-9.6v2.3c0,1.2-0.9,1.8-2.6,1.8H119
				c-0.1,0-0.1-0.1-0.2-0.4c0-0.4-0.2-0.8-0.4-1.2c0-0.1,0-0.2,0.1-0.2c0.9,0.1,1.6,0.2,2.1,0.2s0.8-0.3,0.8-0.9v-1.6h-10
				c-0.1,0-0.2-0.1-0.2-0.4v-0.8c0-0.2,0.1-0.3,0.2-0.3h10v-1.5c0-0.2,0.1-0.3,0.4-0.3l0.6,0.2l2-1.6h-8c-0.2,0-0.3-0.1-0.3-0.4V312
				C116.2,311.7,116.3,311.6,116.5,311.6z M124,298.6l1.1,0.8c0.1,0.1,0.1,0.2,0.1,0.3c0,0.1-0.1,0.1-0.2,0.1
				c-0.2,0-0.4,0.1-0.5,0.2c-0.3,0.4-0.6,0.7-1,1c0.7,0.5,1.3,0.9,1.9,1.3c0,0,0,0.1-0.1,0.2c-0.4,0.6-0.6,0.9-0.7,0.9
				c-0.7-0.5-1.4-1-2.1-1.5c-0.7,0.5-1.5,1.1-2.5,1.6c-0.2,0-0.3-0.1-0.3-0.2c-0.3-0.2-0.5-0.4-0.7-0.5c-0.1,0-0.1-0.1-0.1-0.2
				c0,0,0-0.1,0.1-0.1c0.5-0.2,1-0.4,1.3-0.6c0.4-0.2,0.7-0.4,1-0.7c-0.9-0.5-1.6-0.9-2.2-1.1c0-0.1,0.2-0.3,0.6-0.8
				c0.1-0.1,0.1-0.1,0.2-0.1c1,0.4,1.8,0.8,2.5,1.2c0.4-0.4,0.9-1,1.4-1.6C123.9,298.6,123.9,298.6,124,298.6z M124,303.7l1.1,0.8
				c0.1,0.1,0.1,0.2,0.1,0.2s-0.1,0.1-0.2,0.1c-0.2,0-0.4,0.1-0.5,0.2c-0.3,0.3-0.6,0.6-0.9,0.9c0.6,0.5,1.2,0.9,1.7,1.2
				c0,0,0,0.1-0.1,0.2c-0.4,0.6-0.7,0.9-0.7,0.9c-0.6-0.5-1.3-1-1.9-1.5c-0.7,0.5-1.6,1.1-2.6,1.6c-0.2,0-0.3,0-0.3-0.1
				c-0.3-0.2-0.5-0.4-0.7-0.6c-0.1,0-0.1-0.1-0.1-0.2c0,0,0-0.1,0.1-0.1c0.5-0.2,1-0.4,1.3-0.6c0.4-0.2,0.8-0.5,1.1-0.7
				c0,0,0,0-0.1,0c-0.9-0.6-1.7-1-2.3-1.2c0-0.1,0.2-0.4,0.6-0.9c0.1-0.1,0.1-0.1,0.2-0.1c1,0.5,1.9,1,2.6,1.4
				c0.4-0.4,0.9-0.9,1.3-1.4C123.9,303.7,123.9,303.7,124,303.7z"/>
		</g>
	</g>
</g>
</svg>
