<?xml version="1.0" encoding="utf-8"?>
<!-- Generator: Adobe Illustrator 22.0.1, SVG Export Plug-In . SVG Version: 6.00 Build 0)  -->
<svg version="1.1" id="圖層_1" xmlns="http://www.w3.org/2000/svg" xmlns:xlink="http://www.w3.org/1999/xlink" x="0px" y="0px"
	 viewBox="0 0 150 150" style="enable-background:new 0 0 150 150;" xml:space="preserve">
<style type="text/css">
	.st0{fill:#9CD1AB;}
	.st1{opacity:0.1;fill:#040000;enable-background:new    ;}
	.st2{fill:#F2F2F2;}
	.st3{opacity:8.000000e-02;}
	.st4{fill:#040000;}
	.st5{fill:#91C3C9;}
</style>
<g>
	<rect class="st0" width="150" height="150"/>
	<polyline class="st1" points="40.3,50.5 64.1,77 96.1,58 64.1,27.4 40.3,50.5 	"/>
	<path class="st1" d="M150,68.1V150H79.4l-44-44l-9.9-9.9c-0.7-1.8-1-3.8-1-5.8c0-1.1,0.1-2.1,0.3-3.1L38,74c1-0.2,2.1-0.3,3.1-0.3
		c4.8,0,9.1,2,12.1,5.2l41.4-23.5c-0.5-1.5-0.7-3.1-0.7-4.8c0-9.2,7.5-16.7,16.7-16.7c2.2,0,4.4,0.4,6.3,1.2l9.1,9.1L150,68.1z"/>
	<g>
		<g>
			
				<rect x="84.6" y="62.1" transform="matrix(0.4702 -0.8826 0.8826 0.4702 -32.8773 126.0958)" class="st2" width="8" height="56.6"/>
		</g>
		<g>
			<polygon class="st2" points="53.3,34.1 83.4,66.1 77.4,71.4 47.3,39.4 			"/>
		</g>
		<g>
			<polygon class="st2" points="112.9,54.3 98.8,62.2 72.3,77.2 64.1,81.9 57.2,85.8 43.1,93.8 39.2,86.9 53.3,78.9 94.7,55.4 
				108.9,47.3 			"/>
		</g>
		<g>
			<polygon class="st2" points="75.9,79.1 67.7,83.8 64.1,81.9 72.4,77.2 			"/>
		</g>
		<g class="st3">
			<polygon class="st4" points="75.9,79.1 67.7,83.8 64.1,81.9 72.4,77.2 			"/>
		</g>
		<g>
			<path class="st5" d="M57.8,90.3c0,9.2-7.5,16.7-16.7,16.7c-2,0-4-0.4-5.8-1c-4.6-1.7-8.2-5.3-9.9-9.9c-0.7-1.8-1-3.8-1-5.8
				c0-1.1,0.1-2.1,0.3-3.1C26,80.5,31.3,75.2,38,74c1-0.2,2.1-0.3,3.1-0.3c4.8,0,9.1,2,12.1,5.2c1.8,1.9,3.2,4.3,4,7
				C57.6,87.3,57.8,88.8,57.8,90.3z"/>
		</g>
		<g>
			<path class="st5" d="M127.3,50.5c0,9.2-7.5,16.7-16.7,16.7c-4.7,0-8.9-1.9-11.9-5c-1.9-1.9-3.3-4.3-4.1-6.9
				c-0.5-1.5-0.7-3.1-0.7-4.8c0-9.2,7.5-16.7,16.7-16.7c2.2,0,4.4,0.4,6.3,1.2c4.1,1.7,7.4,5,9.1,9.1
				C126.9,46.2,127.3,48.3,127.3,50.5z"/>
		</g>
		<g>
			<circle class="st5" cx="113.4" cy="104" r="16.7"/>
		</g>
		<g>
			<circle class="st5" cx="51" cy="37.7" r="16.7"/>
		</g>
	</g>
</g>
</svg>
