<?xml version="1.0" encoding="utf-8"?>
<!-- Generator: Adobe Illustrator 23.0.2, SVG Export Plug-In . SVG Version: 6.00 Build 0)  -->
<svg version="1.1" id="_x31_" xmlns="http://www.w3.org/2000/svg" xmlns:xlink="http://www.w3.org/1999/xlink" x="0px" y="0px"
	 viewBox="0 0 512 512" style="enable-background:new 0 0 512 512;" xml:space="preserve">
<style type="text/css">
	.st0{clip-path:url(#SVGID_2_);}
	.st1{fill:#99D4D9;}
	.st2{opacity:0.1;fill:#040000;enable-background:new    ;}
	.st3{fill:#FFFFFF;}
	.st4{fill:#A8D7F0;}
	.st5{fill:#ECECEB;}
	.st6{fill:#ED6E55;}
	.st7{opacity:0.1;fill:#0F0F0F;enable-background:new    ;}
	.st8{opacity:0.1;clip-path:url(#SVGID_2_);fill:#040000;enable-background:new    ;}
	.st9{fill:#FBE6B7;}
	.st10{fill:#FEF9E7;}
	.st11{fill:#BBBA9C;}
	.st12{fill:#EDA8AA;}
	.st13{fill:#6C3734;}
	.st14{opacity:8.000000e-02;fill:#040000;enable-background:new    ;}
</style>
<g>
	<defs>
		<circle id="SVGID_1_" cx="255.8" cy="255.8" r="255.8"/>
	</defs>
	<clipPath id="SVGID_2_">
		<use xlink:href="#SVGID_1_"  style="overflow:visible;"/>
	</clipPath>
	<g class="st0">
		<rect class="st1" width="512" height="512"/>
		<polygon class="st2" points="512,253.3 512,512 185.7,512 109,435.3 104.4,430.7 104.4,76.7 335.4,76.7 339.1,80.5 403.8,145.2 
			407.6,148.9 		"/>
		<g>
			<g>
				<polygon class="st3" points="407.6,145.2 407.6,435.3 104.4,435.3 104.4,76.7 339.1,76.7 				"/>
				<rect x="133.7" y="122.5" class="st4" width="110.7" height="133.5"/>
				<rect x="133.7" y="272.6" class="st5" width="244.6" height="21.5"/>
				<rect x="133.7" y="310.1" class="st5" width="244.6" height="21.5"/>
				<rect x="133.7" y="347.6" class="st5" width="244.6" height="21.5"/>
				<rect x="133.7" y="385.1" class="st5" width="244.6" height="21.5"/>
				<rect x="262.5" y="122.5" class="st5" width="115.8" height="21.5"/>
				<rect x="262.5" y="160.1" class="st5" width="115.8" height="21.5"/>
				<rect x="262.5" y="197.6" class="st5" width="115.8" height="21.5"/>
				<rect x="262.5" y="235.1" class="st5" width="115.8" height="21.5"/>
				<polygon class="st6" points="407.6,145.2 339.2,145.2 339.2,76.7 				"/>
			</g>
			<polygon class="st7" points="407.6,145.2 407.6,435.3 256,435.3 256,76.7 339.1,76.7 			"/>
		</g>
	</g>
	<path class="st8" d="M286.2,528.3l-41.1-41.1l-7.8-37.8l43.6,10.4l70.1,70.1L286.2,528.3z"/>
	<g class="st0">
		<g>
			<polygon class="st9" points="312.3,413.8 308.7,417.2 284.6,441.4 284.5,441.4 284.1,441.9 284,441.9 283.8,441.7 283.8,441.7 
				266.9,424.7 266.6,424.4 266.3,424.1 249.4,407.2 249.1,407 277.3,378.8 			"/>
			<path class="st3" d="M453.5,266.1c-0.3,1.2-0.9,2.3-1.8,3.2l-15.3,15.3l-3.3,3.3l-1.8,1.8c-2.7,2.7-7.1,2.7-9.8,0l-10.1-10.1
				l-10.1-10.1c-2.7-2.7-2.7-7.1,0-9.8l1.8-1.8l3.3-3.3l4.1-4.1l11.2-11.2c0.9-0.9,2-1.5,3.2-1.8c2.3-0.6,4.8,0,6.6,1.8l10.1,10.1
				l10.1,10.1C453.5,261.3,454.1,263.8,453.5,266.1z"/>
			<polygon class="st10" points="438.9,287.1 408,318 390.6,300.5 373.1,283 403.9,252.1 436.4,284.6 			"/>
			<polygon class="st11" points="443,283 438.9,287.1 435.6,290.3 433.2,287.9 403.1,257.9 400.7,255.4 408,248 440.5,280.6 			"/>
			<polygon class="st12" points="413.7,312.3 408,318 367.6,358.4 312.3,413.8 308.7,417.2 291.3,399.7 273.8,382.3 277.3,378.8 
				332.6,323.4 373.1,283 378.7,277.4 396.2,294.9 			"/>
			<path class="st9" d="M284.5,441.4l-0.5,0.1l-0.2,0.1h0l-30.7,8.9c0-0.1-0.1-0.1-0.1-0.2c-1.3-2.6-3-5-5.2-7.2
				c-2.2-2.2-4.6-3.9-7.2-5.2c0,0-0.1,0-0.1-0.1l8.9-30.7l0.1-0.3l0.1-0.5l0.4,0.4l17.1,17.1l0.6,0.6l16.5,16.5L284.5,441.4z"/>
			<path class="st13" d="M253.3,450.3l-0.3,0.1l0,0l-11.3,3.3l-6.1,1.8l1.8-6.1l3.3-11.3l0.1-0.3c2.6,1.3,5.1,3.1,7.3,5.3
				C250.2,445.2,252,447.7,253.3,450.3z"/>
			<polygon class="st12" points="367.6,358.4 312.3,413.8 284.6,441.4 284,442 284,441.9 284.1,441.6 284.2,441 287.7,421 
				267.7,424.6 266.9,424.7 266.2,424.8 266.2,424.8 266.3,424.1 266.4,423.3 270,403.3 250,406.8 249.5,406.9 249.1,407 249.1,407 
				277.3,378.8 332.6,323.4 			"/>
		</g>
		<g>
			<polygon class="st9" points="312.3,413.8 308.7,417.2 284.6,441.4 284.5,441.4 284.1,441.9 284,441.9 283.8,441.7 283.8,441.7 
				266.9,424.7 266.6,424.4 266.3,424.1 249.4,407.2 249.1,407 277.3,378.8 			"/>
			<path class="st3" d="M453.5,266.1c-0.3,1.2-0.9,2.3-1.8,3.2l-15.3,15.3l-3.3,3.3l-1.8,1.8c-2.7,2.7-7.1,2.7-9.8,0l-10.1-10.1
				l-10.1-10.1c-2.7-2.7-2.7-7.1,0-9.8l1.8-1.8l3.3-3.3l4.1-4.1l11.2-11.2c0.9-0.9,2-1.5,3.2-1.8c2.3-0.6,4.8,0,6.6,1.8l10.1,10.1
				l10.1,10.1C453.5,261.3,454.1,263.8,453.5,266.1z"/>
			<polygon class="st10" points="438.9,287.1 408,318 390.6,300.5 373.1,283 403.9,252.1 436.4,284.6 			"/>
			<polygon class="st11" points="443,283 438.9,287.1 435.6,290.3 433.2,287.9 403.1,257.9 400.7,255.4 408,248 440.5,280.6 			"/>
			<polygon class="st12" points="413.7,312.3 408,318 367.6,358.4 312.3,413.8 308.7,417.2 291.3,399.7 273.8,382.3 277.3,378.8 
				332.6,323.4 373.1,283 378.7,277.4 396.2,294.9 			"/>
			<path class="st9" d="M284.5,441.4l-0.5,0.1l-0.2,0.1h0l-30.7,8.9c0-0.1-0.1-0.1-0.1-0.2c-1.3-2.6-3-5-5.2-7.2
				c-2.2-2.2-4.6-3.9-7.2-5.2c0,0-0.1,0-0.1-0.1l8.9-30.7l0.1-0.3l0.1-0.5l0.4,0.4l17.1,17.1l0.6,0.6l16.5,16.5L284.5,441.4z"/>
			<path class="st13" d="M253.3,450.3l-0.3,0.1l0,0l-11.3,3.3l-6.1,1.8l1.8-6.1l3.3-11.3l0.1-0.3c2.6,1.3,5.1,3.1,7.3,5.3
				C250.2,445.2,252,447.7,253.3,450.3z"/>
			<polygon class="st12" points="367.6,358.4 312.3,413.8 284.6,441.4 284,442 284,441.9 284.1,441.6 284.2,441 287.7,421 
				267.7,424.6 266.9,424.7 266.2,424.8 266.2,424.8 266.3,424.1 266.4,423.3 270,403.3 250,406.8 249.5,406.9 249.1,407 249.1,407 
				277.3,378.8 332.6,323.4 			"/>
		</g>
		<path class="st14" d="M440.5,280.5l11.2-11.2c2.7-2.7,2.7-7.1,0-9.8l-10.1-10.1L235.5,455.5l17.5-5.1c0,0,0.1,0.1,0.1,0.1
			l30.8-8.9l0.2,0.2l0,0.1l0.1-0.1l24.7-24.7l3.5-3.5l55.4-55.4L408,318l5.6-5.6l22-22l3.2-3.2l4.1-4.1L440.5,280.5z"/>
	</g>
</g>
</svg>
