<?xml version="1.0" encoding="utf-8"?>
<!-- Generator: Adobe Illustrator 23.0.2, SVG Export Plug-In . SVG Version: 6.00 Build 0)  -->
<svg version="1.1" id="_x32_" xmlns="http://www.w3.org/2000/svg" xmlns:xlink="http://www.w3.org/1999/xlink" x="0px" y="0px"
	 viewBox="0 0 512 512" style="enable-background:new 0 0 512 512;" xml:space="preserve">
<style type="text/css">
	.st0{clip-path:url(#SVGID_2_);}
	.st1{fill:#ECE6D4;}
	.st2{opacity:0.1;fill:#040000;enable-background:new    ;}
	.st3{fill:#FBFBFC;}
	.st4{fill:#E697A8;}
	.st5{fill:#D07E90;}
	.st6{fill:#D7CFBE;}
	.st7{fill:#FFFFFF;}
	.st8{fill:#635F63;}
	.st9{opacity:0.8;}
	.st10{fill:#7E796F;}
	.st11{opacity:0.5;fill:#7E796F;enable-background:new    ;}
	.st12{opacity:0.5;}
	.st13{fill:#7F7F7F;}
	.st14{opacity:6.000000e-02;fill:#040000;enable-background:new    ;}
</style>
<g>
	<defs>
		<circle id="SVGID_1_" cx="256" cy="256" r="256"/>
	</defs>
	<clipPath id="SVGID_2_">
		<use xlink:href="#SVGID_1_"  style="overflow:visible;"/>
	</clipPath>
	<g class="st0">
		<rect class="st1" width="512" height="512"/>
		<polygon class="st2" points="512,206.8 512,512 205.6,512 112.5,418.9 112.5,118 116.5,113.9 120,110.5 123.1,107.4 138.3,92.2 
			141.7,88.7 393.9,88.7 397.4,92.2 399.5,94.3 		"/>
		<g>
			<polygon class="st3" points="399.5,107.4 399.5,372.3 348.5,423.2 112.5,423.2 112.5,107.4 			"/>
			<g>
				<polygon class="st4" points="379.5,170.9 379.5,239.2 333.7,239.2 288.1,281.1 213.4,212.4 171.6,250.9 132.5,250.9 
					132.5,170.9 				"/>
				<polygon class="st5" points="379.5,239.2 379.5,315.3 132.5,315.3 132.5,250.9 171.6,250.9 213.4,212.4 288.1,281.1 
					333.7,239.2 				"/>
				<polygon class="st6" points="379.5,235.2 379.5,244 335.9,244 288.2,287.7 213.3,219 173.3,255.6 132.5,255.6 132.5,246.9 
					169.3,246.9 213.3,206.6 288.2,275.3 331.9,235.2 				"/>
				<ellipse class="st7" cx="214.5" cy="212.4" rx="8.8" ry="8.3"/>
				<ellipse class="st7" cx="288" cy="281.1" rx="8.8" ry="8.3"/>
				<ellipse class="st7" cx="334.7" cy="240.6" rx="8.8" ry="8.3"/>
				<ellipse class="st7" cx="172.5" cy="250.1" rx="8.8" ry="8.3"/>
			</g>
			<rect x="112.5" y="92.1" class="st2" width="287.1" height="21.8"/>
			<path class="st8" d="M394.4,88.7H117.6c-2.8,0-5.2,2.3-5.2,5.2v4.5v6.9v5.2h5.2h276.7h5.2v-5.2v-6.9v-4.5
				C399.5,91,397.2,88.7,394.4,88.7z"/>
			<g class="st9">
				<g>
					<path class="st7" d="M157.5,156.6l-8.6-23.2h-3.1l-8.5,23.2l-0.9,2.6h4.1l1.7-5.2h10.2l1.7,5.2h4.2L157.5,156.6z M144.3,148.1
						l3.1-8.9l3.1,8.9l0.9,2.6h-7.9L144.3,148.1z"/>
					<path class="st7" d="M176.1,144.6c-0.3-0.9-0.8-1.6-1.4-2.4c-0.6-0.5-1.2-0.9-2-1.2c-0.8-0.3-1.6-0.4-2.6-0.4
						c-0.9,0-1.8,0.2-2.6,0.5c-0.9,0.3-1.6,0.9-2.3,1.5v-1.8h-3.6v18.3h3.7V148c0-1.4,0.4-2.4,1.1-3.1c0.8-0.7,1.6-1,2.7-1
						c1,0,1.9,0.4,2.6,1c0.7,0.7,1.1,1.7,1.1,3.1v11.2h3.7v-11.7C176.5,146.4,176.3,145.5,176.1,144.6z"/>
					<path class="st7" d="M193.8,142.2c-1.3-1.1-3.2-1.6-5.7-1.6c-0.8,0-1.4,0.1-2,0.1c-0.6,0.1-1.2,0.3-1.7,0.5
						c-0.5,0.2-1,0.5-1.5,0.8c-0.4,0.4-0.9,0.8-1.3,1.3l2.4,2.3c0.6-0.7,1.1-1.1,1.7-1.4c0.6-0.3,1.3-0.4,2.4-0.4
						c1.4,0,2.5,0.3,3.1,0.9c0.4,0.3,0.6,0.8,0.8,1.3c0.1,0.4,0.2,0.8,0.2,1.2v1.3h-4.8c-2.1,0-3.7,0.5-4.8,1.5
						c-0.8,0.7-1.2,1.5-1.4,2.5c-0.1,0.4-0.2,0.8-0.2,1.3c0,1.6,0.5,2.9,1.4,3.9c0.6,0.6,1.2,1,2,1.2c0.8,0.3,1.7,0.4,2.9,0.4
						c1.1,0,2-0.1,2.8-0.4c0.8-0.3,1.4-0.8,2.1-1.4v1.6h3.6v-12.2C195.6,144.8,195,143.3,193.8,142.2z M184.7,152.4
						c0.5-0.9,1.5-1.3,3-1.3h4.2v1.5c0,1.3-0.3,2.2-0.8,2.7c-0.5,0.5-1,0.8-1.5,0.9c-0.5,0.1-1.1,0.2-1.7,0.2
						c-1.2,0-2.1-0.2-2.7-0.7c-0.6-0.4-0.8-1.1-0.8-1.9C184.4,153.2,184.5,152.7,184.7,152.4z"/>
					<path class="st7" d="M206.9,156c-0.8,0-1.3-0.2-1.6-0.6c-0.3-0.4-0.4-0.9-0.4-1.6v-20.5h-3.7v20.7c0,0.7,0.1,1.3,0.3,1.9
						c0.2,0.6,0.5,1.2,0.9,1.6c0.4,0.5,0.9,0.8,1.6,1.1c0.6,0.3,1.4,0.4,2.3,0.4h2.3V156L206.9,156L206.9,156z"/>
					<path class="st7" d="M222.5,140.8l-4.2,12.9l-4.4-12.9h-3.9l5.9,16.2l0.5,1.3l-1,2.9c-0.3,0.8-0.6,1.3-0.9,1.5
						s-0.9,0.4-1.7,0.4h-1v3.3h1.5c0.7,0,1.4-0.1,2-0.3c0.7-0.2,1.2-0.6,1.7-1.1c0.6-0.6,1-1.3,1.3-2.3l8.1-22L222.5,140.8
						L222.5,140.8z"/>
					<path class="st7" d="M233.6,140.8v-5.2h-3.7v5.2h-2.1v2.8h2.1v10.4c0,0.6,0.1,1.3,0.3,1.9c0.2,0.6,0.5,1.1,0.9,1.6
						c0.4,0.5,0.9,0.8,1.5,1.1c0.6,0.3,1.4,0.4,2.3,0.4h2.2V156h-1.5c-0.7,0-1.2-0.2-1.5-0.6c-0.3-0.4-0.5-0.9-0.5-1.6v-10.2h3.5
						v-2.8H233.6z"/>
					<path class="st7" d="M241.7,133.3v3.9h3.9v-3.9H241.7z M241.9,140.8v18.3h3.7v-18.3H241.9z"/>
					<path class="st7" d="M262.1,154.3c-0.6,0.7-1.1,1.1-1.6,1.3c-0.5,0.3-1.2,0.4-1.9,0.4c-1.4,0-2.6-0.5-3.4-1.6
						c-0.4-0.5-0.7-1.1-0.9-1.8c-0.2-0.7-0.2-1.6-0.2-2.7c0-0.4,0-0.7,0.1-1.1v-0.4c0-0.5,0.1-0.8,0.2-1.2c0.2-0.7,0.5-1.3,0.9-1.8
						c0.8-1.1,1.9-1.6,3.4-1.6c0.7,0,1.4,0.2,1.9,0.4c0.5,0.3,1.1,0.7,1.6,1.3l2.5-2.5c-0.5-0.5-0.9-0.9-1.4-1.2
						c-0.4-0.3-0.9-0.6-1.3-0.7c-0.9-0.4-2-0.6-3.3-0.6c-1,0-2,0.2-3,0.5c-1,0.3-1.8,0.9-2.6,1.6c-0.8,0.8-1.4,1.7-1.9,2.9
						c-0.3,0.8-0.5,1.7-0.6,2.9c-0.1,0.5-0.1,1-0.1,1.5c0,1.7,0.2,3.2,0.7,4.4c0.5,1.2,1.1,2.1,1.9,2.9c0.7,0.7,1.6,1.3,2.6,1.6
						c1,0.3,2,0.5,3,0.5c1.3,0,2.4-0.2,3.3-0.6c1-0.4,1.8-1,2.7-1.9l-1.4-1.4L262.1,154.3z"/>
					<path class="st7" d="M280.6,142.2c-1.3-1.1-3.2-1.6-5.7-1.6c-0.8,0-1.4,0.1-2,0.1c-0.6,0.1-1.2,0.3-1.7,0.5
						c-0.6,0.2-1,0.5-1.5,0.8c-0.4,0.4-0.9,0.8-1.3,1.3l2.4,2.3c0.6-0.7,1.1-1.1,1.7-1.4c0.6-0.3,1.3-0.4,2.4-0.4
						c1.4,0,2.5,0.3,3.1,0.9c0.4,0.3,0.6,0.8,0.8,1.3c0.1,0.4,0.2,0.8,0.2,1.2v1.3h-4.8c-2.1,0-3.7,0.5-4.8,1.5
						c-0.8,0.7-1.2,1.5-1.4,2.5c-0.1,0.4-0.2,0.8-0.2,1.3c0,1.6,0.5,2.9,1.4,3.9c0.6,0.6,1.2,1,2,1.2c0.8,0.3,1.7,0.4,2.9,0.4
						c1.1,0,2-0.1,2.8-0.4c0.8-0.3,1.4-0.8,2.1-1.4v1.6h3.6v-12.2C282.4,144.8,281.8,143.3,280.6,142.2z M271.5,152.4
						c0.5-0.9,1.5-1.3,3-1.3h4.2v1.5c0,1.3-0.3,2.2-0.8,2.7c-0.5,0.5-1,0.8-1.5,0.9c-0.5,0.1-1.1,0.2-1.8,0.2
						c-1.2,0-2.1-0.2-2.6-0.7c-0.6-0.4-0.8-1.1-0.8-1.9C271.2,153.2,271.3,152.7,271.5,152.4z"/>
					<path class="st7" d="M293.7,156c-0.8,0-1.3-0.2-1.6-0.6c-0.3-0.4-0.4-0.9-0.4-1.6v-20.5H288v20.7c0,0.7,0.1,1.3,0.3,1.9
						c0.2,0.6,0.5,1.2,0.9,1.6c0.4,0.5,0.9,0.8,1.6,1.1c0.6,0.3,1.4,0.4,2.3,0.4h2.3V156L293.7,156L293.7,156z"/>
					<path class="st7" d="M326.7,143.4c0-0.9-0.1-1.8-0.2-2.6c-0.2-0.8-0.4-1.5-0.6-2.2c-0.3-0.7-0.6-1.3-1.1-1.9
						c-0.9-1.1-2-1.9-3.1-2.5c-1.2-0.6-2.6-0.8-4.2-0.8h-9.1v25.8h9.1c1.6,0,3-0.3,4.2-0.8c1.1-0.5,2.2-1.3,3.1-2.5
						c0.5-0.6,0.8-1.2,1.1-1.9c0.3-0.7,0.5-1.4,0.6-2.3c0.1-0.8,0.2-1.6,0.2-2.6c0.1-0.9,0.1-1.9,0.1-2.9V145
						C326.8,144.4,326.8,143.9,326.7,143.4z M312.4,136.9h4.7c0.9,0,1.7,0.2,2.5,0.4c0.7,0.3,1.4,0.8,1.9,1.4c0.6,0.7,1,1.6,1.1,2.9
						c0.1,1,0.2,2.1,0.3,3.5v1.3c0,1.9-0.1,3.5-0.3,4.7c-0.1,1.2-0.5,2.2-1.1,2.9c-0.6,0.6-1.2,1.1-1.9,1.3
						c-0.7,0.3-1.6,0.4-2.5,0.4h-4.7V136.9z"/>
					<path class="st7" d="M343.7,142.2c-1.2-1.1-3.1-1.6-5.7-1.6c-0.8,0-1.4,0.1-2,0.1c-0.6,0.1-1.2,0.3-1.7,0.5
						c-0.5,0.2-1,0.5-1.4,0.8c-0.5,0.4-0.9,0.8-1.3,1.3l2.4,2.3c0.5-0.7,1.1-1.1,1.6-1.4c0.6-0.3,1.4-0.4,2.4-0.4
						c1.5,0,2.5,0.3,3.1,0.9c0.4,0.3,0.6,0.8,0.8,1.3c0.1,0.4,0.2,0.8,0.2,1.2v1.3h-4.8c-2.1,0-3.7,0.5-4.8,1.5
						c-0.8,0.7-1.2,1.5-1.4,2.5c-0.1,0.4-0.2,0.8-0.2,1.3c0,1.6,0.5,2.9,1.4,3.9c0.6,0.6,1.2,1,2,1.2c0.8,0.3,1.7,0.4,2.9,0.4
						c1.1,0,2-0.1,2.8-0.4c0.7-0.3,1.4-0.8,2.1-1.4v1.6h3.6v-12.2C345.6,144.8,345,143.3,343.7,142.2z M334.6,152.4
						c0.5-0.9,1.5-1.3,3.1-1.3h4.2v1.5c0,1.3-0.3,2.2-0.8,2.7c-0.5,0.5-1,0.8-1.5,0.9c-0.5,0.1-1.1,0.2-1.8,0.2
						c-1.2,0-2.1-0.2-2.7-0.7c-0.5-0.4-0.8-1.1-0.8-1.9C334.3,153.2,334.4,152.7,334.6,152.4z"/>
					<path class="st7" d="M355.4,140.8v-5.2h-3.7v5.2h-2.1v2.8h2.1v10.4c0,0.6,0.1,1.3,0.3,1.9c0.2,0.6,0.5,1.1,0.9,1.6
						c0.4,0.5,0.9,0.8,1.6,1.1c0.6,0.3,1.3,0.4,2.2,0.4h2.2V156h-1.5c-0.7,0-1.2-0.2-1.5-0.6c-0.4-0.4-0.5-0.9-0.5-1.6v-10.2h3.5
						v-2.8H355.4z"/>
					<path class="st7" d="M375.2,142.2c-1.2-1.1-3.1-1.6-5.7-1.6c-0.8,0-1.5,0.1-2.1,0.1c-0.6,0.1-1.2,0.3-1.7,0.5
						c-0.5,0.2-1,0.5-1.4,0.8c-0.5,0.4-0.9,0.8-1.3,1.3l2.4,2.3c0.5-0.7,1.1-1.1,1.6-1.4c0.6-0.3,1.4-0.4,2.4-0.4
						c1.4,0,2.5,0.3,3.1,0.9c0.4,0.3,0.6,0.8,0.8,1.3c0.1,0.4,0.2,0.8,0.2,1.2v1.3h-4.8c-2.1,0-3.7,0.5-4.8,1.5
						c-0.7,0.7-1.2,1.5-1.4,2.5c-0.1,0.4-0.2,0.8-0.2,1.3c0,1.6,0.5,2.9,1.5,3.9c0.5,0.6,1.2,1,2,1.2c0.8,0.3,1.7,0.4,2.9,0.4
						c1.1,0,2-0.1,2.8-0.4c0.7-0.3,1.4-0.8,2.1-1.4v1.6h3.6v-12.2C377.1,144.8,376.5,143.3,375.2,142.2z M366.1,152.4
						c0.5-0.9,1.5-1.3,3.1-1.3h4.2v1.5c0,1.3-0.3,2.2-0.8,2.7c-0.5,0.5-1,0.8-1.5,0.9c-0.6,0.1-1.1,0.2-1.8,0.2
						c-1.2,0-2.1-0.2-2.7-0.7c-0.5-0.4-0.8-1.1-0.8-1.9C365.8,153.2,365.9,152.7,366.1,152.4z"/>
				</g>
				<g>
					<path class="st10" d="M148.9,130.8h-3.1l-9.4,25.8h4.1l1.7-5.2h10.2l1.7,5.2h4.2L148.9,130.8z M143.5,148.1l4-11.4l3.9,11.4
						L143.5,148.1L143.5,148.1z"/>
					<path class="st10" d="M176.1,142c-0.3-0.9-0.8-1.6-1.4-2.4c-0.6-0.5-1.2-0.9-2-1.2c-0.8-0.3-1.6-0.4-2.6-0.4
						c-0.9,0-1.8,0.2-2.6,0.5c-0.9,0.3-1.6,0.8-2.3,1.5v-1.8h-3.6v18.3h3.7v-11.2c0-1.4,0.4-2.5,1.1-3.1c0.8-0.6,1.6-1,2.7-1
						c1,0,1.9,0.3,2.6,1c0.7,0.7,1.1,1.7,1.1,3.1v11.2h3.7v-11.7C176.5,143.8,176.3,142.9,176.1,142z"/>
					<path class="st10" d="M193.8,139.6c-1.3-1.1-3.2-1.6-5.7-1.6c-0.8,0-1.4,0.1-2,0.1c-0.6,0.1-1.2,0.3-1.7,0.5
						c-0.5,0.2-1,0.5-1.5,0.8c-0.4,0.4-0.9,0.8-1.3,1.3l1.3,1.3l1.1,1c0.6-0.7,1.1-1.1,1.7-1.4c0.6-0.3,1.3-0.4,2.4-0.4
						c1.4,0,2.5,0.3,3.1,0.8c0.6,0.6,0.9,1.4,0.9,2.6v1.3h-4.8c-2.1,0-3.7,0.5-4.8,1.5c-1.1,1-1.6,2.3-1.6,3.8
						c0,0.5,0.1,0.9,0.2,1.3c0.2,1,0.6,1.9,1.3,2.7c0.6,0.6,1.2,1,2,1.2c0.8,0.3,1.7,0.4,2.9,0.4c1.1,0,2-0.2,2.8-0.4
						c0.8-0.3,1.4-0.8,2.1-1.4v1.6h3.6v-12.2C195.6,142.2,195,140.7,193.8,139.6z M191.9,150c0,0.4,0,0.8-0.1,1.1
						c-0.1,0.7-0.3,1.3-0.7,1.6c-0.5,0.5-1,0.7-1.5,0.9c-0.5,0.1-1.1,0.2-1.7,0.2c-1.2,0-2.1-0.2-2.7-0.7c-0.3-0.2-0.4-0.4-0.5-0.7
						c-0.2-0.4-0.3-0.8-0.3-1.3c0-1.7,1.1-2.6,3.3-2.6h4.2L191.9,150L191.9,150z"/>
					<path class="st10" d="M206.9,153.4c-0.8,0-1.3-0.2-1.6-0.6c-0.3-0.4-0.4-0.9-0.4-1.6v-20.5h-3.7v20.7c0,0.7,0.1,1.3,0.3,1.9
						c0.2,0.6,0.5,1.1,0.9,1.6c0.4,0.5,0.9,0.9,1.6,1.1c0.6,0.3,1.4,0.4,2.3,0.4h2.3v-3.1L206.9,153.4L206.9,153.4z"/>
					<path class="st10" d="M222.5,138.2l-4.2,12.9l-4.4-12.9h-3.9l0.9,2.6l5.5,14.9l-0.5,1.3l-0.6,1.6c-0.3,0.8-0.6,1.3-0.9,1.5
						s-0.9,0.4-1.7,0.4h-1v3.3h1.5c0.7,0,1.4-0.1,2-0.3c0.7-0.2,1.2-0.5,1.7-1c0.6-0.6,1-1.3,1.3-2.3l7.2-19.4l0.9-2.6L222.5,138.2
						L222.5,138.2z"/>
					<path class="st10" d="M233.6,138.2V133h-3.7v5.2h-2.1v2.8h2.1v10.4c0,0.6,0.1,1.3,0.3,1.9c0.2,0.6,0.5,1.1,0.9,1.6
						c0.4,0.5,0.9,0.9,1.5,1.2c0.6,0.3,1.4,0.4,2.3,0.4h2.2v-3.1h-1.5c-0.7,0-1.2-0.2-1.5-0.6c-0.3-0.4-0.5-0.9-0.5-1.6v-10.2h3.5
						v-2.8H233.6z"/>
					<path class="st10" d="M241.7,130.7v3.9h3.9v-3.9H241.7z M241.9,138.2v18.3h3.7v-18.3H241.9z"/>
					<path class="st10" d="M260.5,153.1c-0.5,0.3-1.2,0.4-1.9,0.4c-1.4,0-2.6-0.6-3.4-1.6c-0.4-0.5-0.7-1.1-0.9-1.8
						c-0.1-0.4-0.2-0.8-0.2-1.2v-0.4c-0.1-0.3-0.1-0.7-0.1-1.1c0-1.1,0.1-2,0.2-2.7c0.2-0.7,0.5-1.3,0.9-1.8
						c0.8-1.1,1.9-1.6,3.4-1.6c0.7,0,1.4,0.2,1.9,0.4c0.5,0.3,1.1,0.7,1.6,1.3l1.1-1.1l1.4-1.3c-0.9-0.9-1.7-1.6-2.7-2
						c-0.9-0.4-2-0.6-3.3-0.6c-1,0-2,0.2-3,0.5c-1,0.3-1.8,0.9-2.6,1.6c-0.8,0.7-1.4,1.7-1.9,2.9c-0.5,1.2-0.7,2.6-0.7,4.4
						c0,0.4,0,0.7,0.1,1.1c0.1,1.2,0.3,2.3,0.6,3.3c0.5,1.2,1.1,2.1,1.9,2.9c0.7,0.7,1.6,1.3,2.6,1.6c1,0.4,2,0.5,3,0.5
						c1.3,0,2.4-0.2,3.3-0.6c0.5-0.2,0.9-0.4,1.3-0.8c0.5-0.3,1-0.7,1.4-1.2l-2.5-2.4C261.6,152.4,261,152.8,260.5,153.1z"/>
					<path class="st10" d="M280.6,139.6c-1.3-1.1-3.2-1.6-5.7-1.6c-0.8,0-1.4,0.1-2,0.1c-0.6,0.1-1.2,0.3-1.7,0.5
						c-0.6,0.2-1,0.5-1.5,0.8c-0.4,0.4-0.9,0.8-1.3,1.3l1.3,1.3l1.1,1c0.6-0.7,1.1-1.1,1.7-1.4c0.6-0.3,1.3-0.4,2.4-0.4
						c1.4,0,2.5,0.3,3.1,0.8c0.6,0.6,0.9,1.4,0.9,2.6v1.3h-4.8c-2.1,0-3.7,0.5-4.8,1.5c-1.1,1-1.6,2.3-1.6,3.8
						c0,0.5,0.1,0.9,0.2,1.3c0.2,1,0.6,1.9,1.3,2.7c0.6,0.6,1.2,1,2,1.2c0.8,0.3,1.7,0.4,2.9,0.4c1.1,0,2-0.2,2.8-0.4
						c0.8-0.3,1.4-0.8,2.1-1.4v1.6h3.6v-12.2C282.4,142.2,281.8,140.7,280.6,139.6z M278.7,150c0,0.4,0,0.8-0.1,1.1
						c-0.1,0.7-0.3,1.3-0.7,1.6c-0.5,0.5-1,0.7-1.5,0.9c-0.5,0.1-1.1,0.2-1.8,0.2c-1.2,0-2.1-0.2-2.6-0.7c-0.3-0.2-0.4-0.4-0.5-0.7
						c-0.2-0.4-0.3-0.8-0.3-1.3c0-1.7,1.1-2.6,3.3-2.6h4.2V150z"/>
					<path class="st10" d="M293.7,153.4c-0.8,0-1.3-0.2-1.6-0.6c-0.3-0.4-0.4-0.9-0.4-1.6v-20.5H288v20.7c0,0.7,0.1,1.3,0.3,1.9
						c0.2,0.6,0.5,1.1,0.9,1.6c0.4,0.5,0.9,0.9,1.6,1.1c0.6,0.3,1.4,0.4,2.3,0.4h2.3v-3.1L293.7,153.4L293.7,153.4z"/>
					<path class="st10" d="M326.7,140.7c0-0.9-0.1-1.7-0.2-2.6c-0.2-0.8-0.4-1.5-0.6-2.2c-0.3-0.7-0.6-1.3-1.1-1.9
						c-0.9-1.1-2-1.9-3.1-2.5c-1.2-0.5-2.6-0.8-4.2-0.8h-9.1v25.8h9.1c1.6,0,3-0.3,4.2-0.8c1.1-0.5,2.2-1.3,3.1-2.5
						c0.5-0.6,0.8-1.2,1.1-1.9c0.3-0.7,0.5-1.4,0.6-2.2c0.1-0.8,0.2-1.6,0.2-2.6c0.1-0.5,0.1-1.1,0.1-1.6v-1.3
						C326.8,142.6,326.8,141.7,326.7,140.7z M322.9,145c-0.1,1.3-0.2,2.5-0.3,3.4c-0.1,1.2-0.5,2.2-1.1,2.9
						c-0.6,0.6-1.2,1.1-1.9,1.3c-0.7,0.3-1.6,0.4-2.5,0.4h-4.7v-18.8h4.7c0.9,0,1.7,0.2,2.5,0.4c0.7,0.3,1.4,0.7,1.9,1.4
						c0.6,0.7,1,1.6,1.1,2.9c0.2,1.2,0.3,2.8,0.3,4.8V145z"/>
					<path class="st10" d="M343.7,139.6c-1.2-1.1-3.1-1.6-5.7-1.6c-0.8,0-1.4,0.1-2,0.1c-0.6,0.1-1.2,0.3-1.7,0.5
						c-0.5,0.2-1,0.5-1.4,0.8c-0.5,0.4-0.9,0.8-1.3,1.3l1.3,1.3l1.1,1c0.5-0.7,1.1-1.1,1.6-1.4c0.6-0.3,1.4-0.4,2.4-0.4
						c1.5,0,2.5,0.3,3.1,0.8c0.6,0.6,0.9,1.4,0.9,2.6v1.3h-4.8c-2.1,0-3.7,0.5-4.8,1.5c-1.1,1-1.6,2.3-1.6,3.8
						c0,0.5,0.1,0.9,0.2,1.3c0.2,1,0.6,1.9,1.3,2.7c0.6,0.6,1.2,1,2,1.2c0.8,0.3,1.7,0.4,2.9,0.4c1.1,0,2-0.2,2.8-0.4
						c0.7-0.3,1.4-0.8,2.1-1.4v1.6h3.6v-12.2C345.6,142.2,345,140.7,343.7,139.6z M341.9,150c0,0.4,0,0.8-0.1,1.1
						c-0.1,0.7-0.3,1.3-0.7,1.6c-0.5,0.5-1,0.7-1.5,0.9c-0.5,0.1-1.1,0.2-1.8,0.2c-1.2,0-2.1-0.2-2.7-0.7c-0.2-0.2-0.4-0.4-0.5-0.7
						c-0.2-0.4-0.3-0.8-0.3-1.3c0-1.7,1.1-2.6,3.4-2.6h4.2V150z"/>
					<path class="st10" d="M355.4,138.2V133h-3.7v5.2h-2.1v2.8h2.1v10.4c0,0.6,0.1,1.3,0.3,1.9c0.2,0.6,0.5,1.1,0.9,1.6
						c0.4,0.5,0.9,0.9,1.6,1.2c0.6,0.3,1.3,0.4,2.2,0.4h2.2v-3.1h-1.5c-0.7,0-1.2-0.2-1.5-0.6c-0.4-0.4-0.5-0.9-0.5-1.6v-10.2h3.5
						v-2.8H355.4z"/>
					<path class="st10" d="M375.2,139.6c-1.2-1.1-3.1-1.6-5.7-1.6c-0.8,0-1.5,0.1-2.1,0.1c-0.6,0.1-1.2,0.3-1.7,0.5
						c-0.5,0.2-1,0.5-1.4,0.8c-0.5,0.4-0.9,0.8-1.3,1.3l1.3,1.3l1.1,1c0.5-0.7,1.1-1.1,1.6-1.4c0.6-0.3,1.4-0.4,2.4-0.4
						c1.4,0,2.5,0.3,3.1,0.8c0.6,0.6,0.9,1.4,0.9,2.6v1.3h-4.8c-2.1,0-3.7,0.5-4.8,1.5c-1,1-1.6,2.3-1.6,3.8c0,0.5,0.1,0.9,0.2,1.3
						c0.2,1,0.6,1.9,1.3,2.7c0.5,0.6,1.2,1,2,1.2c0.8,0.3,1.7,0.4,2.9,0.4c1.1,0,2-0.2,2.8-0.4c0.7-0.3,1.4-0.8,2.1-1.4v1.6h3.6
						v-12.2C377.1,142.2,376.5,140.7,375.2,139.6z M373.5,150c0,0.4-0.1,0.8-0.1,1.1c-0.1,0.7-0.4,1.3-0.7,1.6
						c-0.5,0.5-1,0.7-1.5,0.9c-0.6,0.1-1.1,0.2-1.8,0.2c-1.2,0-2.1-0.2-2.7-0.7c-0.2-0.2-0.4-0.4-0.5-0.7c-0.2-0.4-0.3-0.8-0.3-1.3
						c0-1.7,1.1-2.6,3.4-2.6h4.2V150z"/>
				</g>
			</g>
			<g>
				<rect x="136.6" y="333.2" class="st11" width="94.7" height="57.6"/>
				<g class="st12">
					<rect x="246.4" y="378.9" class="st10" width="63.3" height="7.9"/>
					<rect x="246.4" y="335.6" class="st10" width="130.7" height="8.3"/>
					<rect x="246.4" y="357.1" class="st10" width="130.7" height="8.3"/>
				</g>
			</g>
			<polygon class="st13" points="399.5,372.3 348.5,423.2 348.5,372.3 			"/>
		</g>
		<polygon class="st14" points="112.5,406.4 112.5,423.2 348.6,423.2 399.6,372.3 399.6,119.4 		"/>
	</g>
</g>
</svg>
